<svg id="Layer_1" data-name="Layer 1" xmlns="http://www.w3.org/2000/svg" viewBox="0 0 470 466.5"><defs><style>.cls-1{fill:#ff90c0;}.cls-2{fill:#fff;}</style></defs><title>help</title><circle class="cls-1" cx="234.6" cy="233.3" r="228.7"/><path class="cls-2" d="M203.9,249.5c0-47.1,57.8-52.7,57.8-80,0-12.3-9.1-22.6-30.9-22.6-19.8,0-36.4,9.9-48.7,24.6l-32.1-36C171,110.9,202.7,97,236.8,97c51.1,0,82.4,25.7,82.4,62.6,0,57.8-66.1,62.2-66.1,95.4,0,6.3,3.2,13.1,7.1,16.6L217,284.4C208.7,275.2,203.9,263.4,203.9,249.5Zm0,87.9A32.1,32.1,0,1,1,236,369.5,32.5,32.5,0,0,1,203.9,337.4Z"/></svg>