<svg id="Layer_1" data-name="Layer 1" xmlns="http://www.w3.org/2000/svg" viewBox="0 0 483 871.2"><defs><style>.cls-1{fill:#5b0808;}.cls-2{fill:#ae000c;}.cls-3{fill:#2a2a2a;}.cls-4{fill:#dfe3e5;}.cls-5{opacity:0.18;}.cls-6{fill:#390300;}.cls-7{opacity:0.17;}.cls-8{fill:#fff;}.cls-9{fill:#cecece;}.cls-10{opacity:0.2;}.cls-11{fill:#9b9b9b;}</style></defs><title>iphone-red</title><rect class="cls-1" x="106.8" y="148.9" width="6.7" height="44.51" rx="3.2" ry="3.2"/><rect class="cls-1" x="466.3" y="148.9" width="6.7" height="44.51" rx="3.2" ry="3.2"/><rect class="cls-1" x="106.8" y="204.8" width="6.7" height="44.51" rx="3.2" ry="3.2"/><rect class="cls-2" x="110.3" y="4.8" width="359.3" height="739.33" rx="58.6" ry="58.6"/><circle class="cls-3" cx="162.9" cy="57.5" r="19.7"/><circle class="cls-4" cx="210.7" cy="57.5" r="11.8"/><g class="cls-5"><path class="cls-6" d="M469.6,63.4V685.6a58.6,58.6,0,0,1-58.6,58.6H290V4.8H411.1A58.6,58.6,0,0,1,469.6,63.4Z"/></g><g class="cls-7"><path class="cls-8" d="M172.2,58a8.6,8.6,0,0,1-16.1,4.3,8.6,8.6,0,0,0,11.3-12A8.6,8.6,0,0,1,172.2,58Z"/></g><rect class="cls-1" x="365.6" y="219.4" width="6.7" height="26.39" rx="3.2" ry="3.2"/><rect class="cls-1" x="365.6" y="268.2" width="6.7" height="44.51" rx="3.2" ry="3.2"/><rect class="cls-1" x="6.3" y="268.2" width="6.7" height="44.51" rx="3.2" ry="3.2"/><rect class="cls-1" x="365.6" y="324.2" width="6.7" height="44.51" rx="3.2" ry="3.2"/><rect class="cls-4" x="11" y="125.6" width="356.5" height="736.53" rx="57.2" ry="57.2"/><path class="cls-2" d="M310.3,127a55.8,55.8,0,0,1,55.8,55.8V805a55.8,55.8,0,0,1-55.8,55.8H68.2A55.8,55.8,0,0,1,12.4,805V182.8A55.8,55.8,0,0,1,68.2,127H310.3m0-2.8H68.2A58.6,58.6,0,0,0,9.6,182.8V805a58.6,58.6,0,0,0,58.6,58.6H310.3A58.6,58.6,0,0,0,368.9,805V182.8a58.6,58.6,0,0,0-58.6-58.6Z"/><path class="cls-9" d="M189.3,844.3A28.3,28.3,0,1,1,217.5,816,28.3,28.3,0,0,1,189.3,844.3Zm0-54.6A26.4,26.4,0,1,0,215.7,816,26.4,26.4,0,0,0,189.3,789.6Z"/><g class="cls-10"><path class="cls-11" d="M368.9,182.8V805a58.6,58.6,0,0,1-58.6,58.6H187V124.2H310.3A58.6,58.6,0,0,1,368.9,182.8Z"/></g><rect class="cls-3" x="33.5" y="211.4" width="311.5" height="559.44"/><circle class="cls-3" cx="131.5" cy="170.5" r="5.5"/><rect class="cls-3" x="157.5" y="167.4" width="59.1" height="6.3" rx="2.8" ry="2.8"/></svg>