<svg id="Layer_1" data-name="Layer 1" xmlns="http://www.w3.org/2000/svg" viewBox="0 0 1440 900"><defs><style>.cls-1{fill:#fcc772;}.cls-2{fill:#512a00;}</style></defs><title>leopard-vector</title><rect class="cls-1" x="0.9" y="0.2" width="1440.1" height="898.76"/><path class="cls-2" d="M284,899c-5.5-6.5-6.5-13.1-.2-19.7,4.4-18.1,8.9-36.2,8.1-55a14.4,14.4,0,0,1,4.3-11.1,63.9,63.9,0,0,0,10.4-14.3c5.6-11.3,14.1-16.3,26.6-13.9a9.7,9.7,0,0,1,4.7,2.6c3.3,3.2,6.6,2.9,9.8.4a105.6,105.6,0,0,0,8.1-7.4c8.4-8.1,14.3-7.5,20.5,2.4a52.6,52.6,0,0,1,6.5,41.8c-3.7,14.6-9.3,28.7-14.4,43-2.7,7.5-9,12.2-15.3,16.7-3.7,2.6-7,.7-9.9-1.7s-3.1-5.3-1.4-8.5c.5-1,1.1-2,1.8-3,2-3.1,2.2-5.9-1-8.3s-3-4.9-.9-7.8a38.7,38.7,0,0,1,3.3-4.4c3.8-3.9,5.4-7.9,3.2-13.5-.8-2,1.4-5.1,2.1-7.7s2.5-6.5,1.4-7.9-5.3-2.2-8-1.9c-4.6.5-9.1,2-13.6,3.2-2.8.7-5.2.8-7-2s-4-2.3-6.5-.8c-7.8,4.9-11.3,12.3-13.4,20.8-.3,1.1-.5,2.7,0,3.4,3.6,4.8,6.8,10.2,11.4,13.8s6.2,6.4,6,11.6.8,10.8.6,16.1c-.1,2.1-1.4,4.4-2.7,6.2a84.2,84.2,0,0,1-6.3,7Z"/><path class="cls-2" d="M1184,899c-5.4-6.5-6.5-13-.2-19.7,4.3-18.1,8.9-36.2,8.1-55a14.4,14.4,0,0,1,4.3-11.1,63.8,63.8,0,0,0,10.4-14.3c5.7-11.4,14.1-16.3,26.6-14a9.7,9.7,0,0,1,4.7,2.6c3.3,3.2,6.6,3,9.8.4s5.7-5.1,8.5-7.7c8-7.6,13.8-7.1,19.8,2.3a52.6,52.6,0,0,1,6.8,42.2c-3.5,14.1-8.8,27.9-13.7,41.6-2.8,7.9-9.1,13-15.6,17.7-3.9,2.8-7.3,1.1-10.4-1.4s-3.1-5.7-1.2-9l2-3.4c1.6-2.7,1.4-5.2-1.1-7.1s-3.2-5.8-.7-9a51.9,51.9,0,0,1,3.4-4.3c3.5-3.5,4.5-7.2,2.7-12.2-.8-2.2,1.3-5.4,1.9-8.2s2.5-6.5,1.4-7.9-5.3-2.2-8-1.9c-4.6.5-9.1,2-13.6,3.2-2.8.8-5.2.8-7-2s-4-2.4-6.5-.8c-7.9,5-11.6,12.6-13.4,21.3-.2.9-.4,2.3.1,2.9,3.6,4.8,6.8,10.1,11.4,13.8s6.2,6.3,6,11.6.9,10.8.5,16.1c-.2,2.7-2.2,5.4-3.9,7.8s-3.4,3.6-5.1,5.4Z"/><path class="cls-2" d="M507,899c1.7-3.8,2.6-8.4,5.3-11.4,10.3-11.3,10.3-24.1,7.4-37.9-.5-2.5.2-6.3,1.8-7.9a16.8,16.8,0,0,0,5.2-12c.1-4.9,2.6-7.1,6.9-8.4,6.5-1.9,12.9-5.7,19.4-5.7,8.4,0,17.1,2.2,25.1,4.9,3.5,1.2,6.1,4.2,10.6,3.8s7.3,1.9,9.1,5.8,4.1,7.6,4.5,11.5-1.3,6.8-3.2,9.3c-5.9,7.9-7.9,6.8-14.5,4.4s-14.3-2.3-21.5-2.6c-3.9-.2-5.6,3.8-3.1,7.2,3.6,5,3,8.7-1.7,12.4a7.2,7.2,0,0,0-2.5,8.9,10.1,10.1,0,0,1,.1,6.3c-1.5,4.3-.4,7.8,2,11.2Z"/><path class="cls-2" d="M109,899c-2.8-6-5.6-12-8.3-18.1-4.3-9.7-2.8-14.2,6.4-19.2l4-2.1c6.5-3.8,7.8-11.4,2.8-16.9-2.4-2.7-5.7-4.6-8.3-7.1s-3.3-6.9,1.4-8.3a46,46,0,0,1,24.9-.2c11.4,2.9,21.4,10.4,34.1,9.7,4.9-.3,10.7,2.8,15,5.8,8.2,5.8,15.3,12.9,19.9,22.2,2.6,5.3,1.2,15.2-2.8,17.5-6,3.4-17,.9-18.9-5.8-2.9-9.8-9.7-13.9-18-17.7-2.7-1.2-5-3.8-7.2-6s-4.5-4.7-8.5-2.4c-6.2,3.6-8.5,6.5-7.5,11a28.5,28.5,0,0,0,1.9,5.1c2.9,6.7,2.8,13.1-1.2,19.4-1,1.6-.6,4.3-.4,6.4A47,47,0,0,0,140,899Z"/><path class="cls-2" d="M1009,899c-2.8-6-5.6-12-8.3-18.1-4.3-9.8-2.8-14.1,6.4-19.3l4-2.1c6.4-3.8,7.8-11.4,2.8-16.9-2.4-2.7-5.7-4.6-8.3-7.1s-3.3-6.9,1.4-8.3a46.2,46.2,0,0,1,24.9-.2c11.5,2.9,21.4,10.4,34.1,9.7,4.8-.3,10.4,2.6,14.6,5.5,8.4,5.9,15.7,13.1,20.3,22.6,2.6,5.3,1.3,15.2-2.8,17.5-5.9,3.4-17,.9-18.9-5.8-2.9-9.7-9.7-14-18-17.6-2.7-1.2-4.9-3.8-7.2-6s-4.5-4.7-8.5-2.4c-6.2,3.6-8.5,6.5-7.5,11a28.4,28.4,0,0,0,1.9,5.1c2.9,6.7,2.9,13.1-1.2,19.4-1,1.6-.6,4.3-.4,6.4a47.1,47.1,0,0,0,1.7,6.6Z"/><path class="cls-2" d="M404,899c-2.8-4,.2-5.9,2.8-8s5.6-3.4,7.2-5.9c2.6-4,2.3-8.6-.3-12.8a15.7,15.7,0,0,0-2.6-3.6c-8.7-7.8-7.6-16.9.6-28.3,5.4-7.5,12.4-14.3,14.4-24.1.4-2.1,3.1-4.2,5.2-5.4s7.2-2.5,10.7-4.1c7-3.1,13.4-2.2,20,1.4a26.5,26.5,0,0,0,11.7,3.3c12.1.2,17.1,6.7,12.7,18.2-2.7,7.1-8.2,12-15.5,14.5-4.3,1.5-6.4-.5-5.8-5a56.9,56.9,0,0,1,1.5-5.8c1.3-5.3.9-10.5-2.8-14.6a8.9,8.9,0,0,0-6.5-2.5c-1.4.1-3.2,2.8-3.6,4.6-1,4-3.3,6.2-7,7.7a20.6,20.6,0,0,0-11.9,22.7c1.3,6.4,1.2,12.3-2.4,18.2s-.8,12.6,4.7,15.4a7.5,7.5,0,0,0,5.1,0c1.5-.5,2.6-2.3,4.1-2.8,9.3-3.4,16.7-8.5,21.2-18,1.9-4.1,7.5-2.9,9.5,1.6a14.7,14.7,0,0,1-1,14.3A52.6,52.6,0,0,1,457,899Z"/><path class="cls-2" d="M1304,899c-2.8-4,.2-6,2.8-8s5.3-3.2,6.9-5.5c2.7-3.9,2.7-8.5.2-12.8a22.8,22.8,0,0,0-3.9-5.2c-8.4-7.9-5-17.9.9-26.4s12.8-14.9,15.1-24.9c.5-2.1,3.1-4.2,5.2-5.3s7.2-2.5,10.7-4.1c7-3.1,13.4-2.2,20,1.5a26.3,26.3,0,0,0,11.7,3.3c12,.2,17.1,6.7,12.7,18.2a24.4,24.4,0,0,1-15.5,14.5c-4.3,1.4-6.4-.5-5.8-5a56.9,56.9,0,0,1,1.5-5.8c1.3-5.1,1-10.1-2.5-14.2-1.4-1.7-4.2-3.1-6.3-3s-3.6,2.8-4.1,4.6c-1.1,4-3.3,6.2-7,7.7a20.5,20.5,0,0,0-11.9,22.7c1.3,6.4,1.2,12.3-2.4,18.2s-1.2,12,4.3,15.1c1.4.8,3.8.7,5.5.3s2.6-2.2,4.1-2.8c9.2-3.5,16.8-8.5,21.2-18,1.9-4.1,7.5-2.8,9.5,1.6a14.7,14.7,0,0,1-1,14.3A52.6,52.6,0,0,1,1357,899Z"/><path class="cls-2" d="M1441,774c-8.1,2.1-11,.7-14.4-7-.8-1.7-1.9-3.8-3.5-4.7-8.9-5.1-9.1-13.9-9.7-22.5a15.5,15.5,0,0,1,.6-5.4c3.2-10.6-4.1-18.1-12.4-22.3s-9.6-8.3-3.9-15.9,15.7-13.6,27.1-14.6c5.5-.5,10.7-3,16.1-4.7v23c-9.9,7.8-10,10.3-1,18.9l1,1.1Z"/><path class="cls-2" d="M1441,460c-5.6.9-11.1,2-16.7,2.8s-10.5-1.3-14.5-5.2a4.2,4.2,0,0,1-.2-4.1,20.4,20.4,0,0,1,5.3-4.3c6.6-4.2,8.4-11.4,4.3-18a40,40,0,0,0-3.3-4.3c-7-8.3-6-17.3.7-26s13-15.1,15.3-25.3c1-4.8,5.3-5.5,9.1-6.4v55c-6.2,9.4-6.2,12.5,0,19Z"/><path class="cls-2" d="M1441,607c-4.2,1.1-6.8-1.1-8.4-4.5-3.4-7.5-6.5-15.1-10.1-22.5a12.7,12.7,0,0,0-5.2-4.9c-9.9-5.4-12.4-11.4-8.7-22.2a29.4,29.4,0,0,1,10.9-15c7.1-5.1,7.3-6,5.1-14.1-1.5-5.9,4.4-12.8,11.9-13.7a34.5,34.5,0,0,1,4.5,0v30c-3.7.1-4.6,2.5-3.8,5.4s2.5,5.7,3.8,8.6Z"/><path class="cls-2" d="M1441,84c-1.9-.7-3.7-1.9-5.6-1.9s-6,.1-7.6,1.7-2.1,5.1-1.6,7.5c3.3,18.4-7.5,28.2-21.4,26.8-7.7-.8-10.8-4.2-10.2-11.9,0-.7.3-1.5,0-2-5.1-7.8-1.8-16.8-3.8-25a13.4,13.4,0,0,0-2-3.9c-4.1-6.2-.9-13.1,6.5-13.5s12.9.4,18.6,5.2,11.1,7.2,16.9,10.4c3.1,1.7,6.7-.4,5.4-2.8-3.5-6.6,1.6-9.1,4.9-12.7Z"/><path class="cls-2" d="M1407,899c1.9-4.1,3.1-8.9,6-12.2,9.8-11,9.8-23.5,6.7-36.6-.9-3.6-.4-6.1,2-9.1s4.7-6.5,4.8-9.9c.3-7.7,3.7-9.2,10.2-10.4l4.4-.8v79Z"/><path class="cls-2" d="M585,899c1.9-1.8,3.5-4.5,5.7-5.4,9.5-3.6,14.8-11.5,20.7-18.9a38.5,38.5,0,0,1,3.4-4.3,10.7,10.7,0,0,1,4.1-2.7c6-1.7,19.7,6.7,20.1,13s-.7,12.2-1.1,18.2Z"/><path class="cls-2" d="M750,899c6.6-8.9,7.4-8.4,16.9-15.2,11.1-7.9,21.3-4.6,32.1-.4,3.9,1.5,4.8,4.1,3.9,7.9s-1.2,5.2-1.8,7.7Z"/><path class="cls-2" d="M673,899a50.3,50.3,0,0,1,27-16.8c3.4-.8,7.7.4,11,1.9,7.6,3.3,14.9,7.2,23.7,6.8,4.8-.2,5.2,4.2,5.3,8.1Z"/><path class="cls-2" d="M1441,29l-6.7,1.8c-6.3,1.7-11.4-.6-15.9-4.8a4,4,0,0,1-1.1-3c1.3-8.4-2-15.2-7.5-22H1441Z"/><path class="cls-2" d="M877,899c2.4-4.4,5.5-7,11.1-6.1,2.2.4,4.8-1.4,7.2-2.3,4-1.5,7.8-3.8,11.9-4.2s6,1.5,8.3,3.3,6.4,6.2,9.5,9.4Z"/><path class="cls-2" d="M2,899a30.5,30.5,0,0,1-.3-5.4c.3-2.3.4-5.7,1.7-6.4,3.4-1.8,7.4-1.9,10.6,1.1S21.4,895.4,25,899Z"/><path class="cls-2" d="M1441,720l-1-1.1c-9-8.6-8.9-11.1,1-18.9Z"/><path class="cls-2" d="M1072,899c1.9-5.2,4.4-6.8,9.3-4.9,2.8,1.1,5.2,3.2,7.7,4.9Z"/><path class="cls-2" d="M172,899c1.9-5.2,4.5-6.8,9.3-4.9,2.8,1.1,5.2,3.2,7.7,4.9Z"/><path class="cls-2" d="M850,899c7.7-5.4,15.3-5.1,23,0Z"/><path class="cls-2" d="M1441,443c-6.2-6.5-6.2-9.6,0-19Z"/><path class="cls-2" d="M1441,554c-1.3-2.9-2.9-5.6-3.8-8.6s0-5.3,3.8-5.4Z"/><path class="cls-2" d="M1441,330l-4.6-4.1,4.6-4.9Z"/><path class="cls-2" d="M1032.9,711.1c-4,.6-6-1.7-8.3-5.9-3.7-6.7-8.8-12.8-13.8-18.6-2.6-3-7-1.6-7.5,2.4-.9,6.8-4.5,8.3-10.6,8.2-2.3-.1-4.7,2.1-6.8,3.7s-4,4.4-6.4,6c-5.9,4.1-6.2,9.4-1,14.4a14.9,14.9,0,0,1,4.3,6.9c1.1,5,4,7,8.5,6.3s10.7.8,16.1,1.9,12.2.2,18.3.1c2,0,4-.5,5.9-.7,8.3-.9,8.8-.5,11.8,7.6a4.8,4.8,0,0,0,.6,1.4c4,5,4.8,10.2.5,15.4s-11.2,12.8-20.6,11.9a198.3,198.3,0,0,1-26.5-4.5c-3.2-.8-6.4-3.6-8.5-6.3-4-5.2-9-8.5-14.8-11.4A102,102,0,0,1,943.6,727a22.2,22.2,0,0,0-7.2-5.1c-6.5-3-8.6-8.5-9.2-14.9a5.2,5.2,0,0,1,1.8-3.7c6.2-5.3,9.6-11.9,9.2-20.1-.2-4.3,2-6.5,5.9-7.3s6.9-1.2,10.4-1.6c12.5-1.4,20.2-9.5,26.4-19.3,2.6-4.1,4.9-6.2,10.1-6.4,3.4-.1,7.2-2.3,10.1-4.5s7.1-3,11-.8c5.8,3.2,11.7,6.2,17.6,9.3.3.2.7.2.9.5,4.2,7.7,11.6,13.3,13.8,22.2a20.2,20.2,0,0,0,3.8,8.1c3.4,4,4.7,7.9,2.6,12.8-1.4,3.2-2.6,6.5-4.1,9.6S1040.9,711,1032.9,711.1Z"/><path class="cls-2" d="M132.8,711.1c-4.1.6-6-1.9-8.2-6-3.7-6.7-8.8-12.8-13.9-18.6-2.6-3-6.3-1.4-7.6,2.6-2.4,7.5-2.5,7.2-10.6,8-2.4.2-4.7,2.3-6.8,3.9s-4,4.4-6.4,6c-5.7,4-6.1,9.3-1.3,14.1a19,19,0,0,1,4.8,7.8c1.2,4.1,3.6,6.3,7.5,5.6,6.3-1,12,.8,18.1,2.1s11.5.1,17.3-.2c2.7-.1,5.3-.6,7.9-1,4.8-.7,8.1,1.1,9.3,6.1a16.6,16.6,0,0,0,1.5,4.2c4,7.1,3.8,10.5-1.5,16.5-6.8,7.7-14.7,12.1-25.6,8.9-5.5-1.7-11.4-2.2-17.2-2.8a14.7,14.7,0,0,1-11.2-6.6c-3.8-5.8-9.5-9-15.5-12.1a102.5,102.5,0,0,1-29.5-22.3,24.2,24.2,0,0,0-7.6-5.5c-6.5-3.1-8.6-8.6-9.1-15-.1-1.3,1.1-3,2.2-4,5.8-5.2,9.1-11.5,8.8-19.3-.2-4.5,1.8-6.9,6.1-7.7s6.9-1.2,10.4-1.6c12.5-1.4,20.2-9.6,26.3-19.3,2.6-4.2,5-6.2,10.1-6.2,3.1,0,6.8-1.8,9.3-4,4.5-3.8,8.4-3.5,13.1-.6s10.2,5.4,15.4,8.1c.4.2,1.1.3,1.3.7,4.9,7.2,11.2,13.5,14.1,22,1,3,2,6.2,4,8.5s4.7,7.6,2.6,12.3-2.8,6.8-4.3,10.1S140.7,711,132.8,711.1Z"/><path class="cls-2" d="M660,734.7c5.3-.3,9,1.6,12,6.3,5.5,8.7,10.9,10.4,20.6,7.8,7-1.8,15.5,2.6,19.1,9.4,1.5,2.8,4,5.1,5.9,7.7s2.5,2.8,3.1,4.4c1.7,4.6,1,8.2-3.7,11.4-8.9,6-13.6,6.3-23,1.2-4.7-2.6-10.1-3.8-15.2-5.8s-7.8-3.5-11.8-4.9c-1.8-.6-3.9-.5-5.9-.7.3,2-.1,4.4.9,5.8,4.1,5.6,6.2,12.6,12.6,16.5,1.3.8,1.5,4.7.9,6.8-1.3,4.4.4,6.1,4.4,6.1s8,1.5,8.7,7.1c.3,2,3.5,4.3,5.9,5.1a79.1,79.1,0,0,0,14.1,2.9c4.6.6,8-1.4,10.4-5.4,3.5-5.8,13.6-10.4,20-9.2h.5c5.9,4,12,7.7,17.6,12.1,2.7,2.1,4.5,5.3,6.7,8s3.7,7.8.3,11.3a191.8,191.8,0,0,1-14.9,14c-1.3,1.1-3.7,1.5-5.6,1.4-6.8-.3-13.6-.8-20.4-1.3-2.7-.2-5.3-.3-7.9-.8s-6-2.7-6.5-6.9c-.7-6.1-3.8-8.1-9.2-5.2-7.2,3.9-14.5,4.3-22.3,3.3-5.6-.7-11.3-.4-16.9-1.3a11.7,11.7,0,0,1-6.8-4.1c-4.7-6.2-8.9-12.8-13.2-19.4a8.6,8.6,0,0,1-1.5-4.7c.2-5.1-3-7-7-8.4-12-4.2-16.7-15.9-10.7-27.1,3.7-7,8.6-13,16.2-16.4,5.3-2.3,5.7-3.8,2.8-8.7s-1.3-7.4,1.5-10.5C646.6,737.2,652.9,734.8,660,734.7Z"/><path class="cls-2" d="M272.3,810.5c-.6,6.7-.9,11.5-1.4,16.3s-3.5,7.6-8.3,7.6c-6.6,0-13.3-.2-19.9-.8-1.7-.1-3.6-1.6-4.9-3-4-4.4-7.8-9-11.7-13.5-2-2.3-4.2-4.3-6-6.7s-3.7-7.1-.1-11.2,2.8-7.9-2.3-9.3c-11.1-2.9-16.8-11.4-23.3-19.4-1.2-1.6-2.3-3.4-3.9-4.5-5.7-4-5.2-9.4-3.9-15.2s2.2-11.4,3.5-17.1c.5-2,1.2-4.4,2.5-5.8,3.2-3.2,2.9-6.4,1.2-10-6.4-13.5-.6-25.6,14.3-28.1,6.5-1.1,13.5-.3,20.1.7s6.6.9,8.1-4.6c1.1-4,3.8-5.8,7.6-6.1,9-.7,16.5,2.6,21.6,10,1.6,2.3,1.6,5.8,1.8,8.8s-.7,8.5.3,12.4,3.3,5.7,5.9,7.3c9.8,6.1,12.6,13.2,8.7,23.9a12.4,12.4,0,0,0-.6,5.8c1.3,9.2-3.2,13.5-12.4,12.2s-13.6-5.6-15.8-14.2c-1.5-5.6-4.8-10.8-7.2-16.2-1.6-3.8-2.8-7.8-4.6-11.4-.8-1.7-2.6-2.9-4-4.4-1.1,1.5-3.1,2.9-3.2,4.5-.7,6.8-4.8,13.2-2.7,20.6.4,1.4-2.4,4.6-4.4,5.7-3.7,2.1-4,4.2-1.2,6.9s5,6.9,1.3,11.6c-1.2,1.6-.6,5.5.5,7.7,1.9,4,4.8,7.6,7.4,11.2s7.1,5.6,12.2,4.3c10.1-2.6,19.8,4.3,21.4,14.7C269.5,805,271.5,808.5,272.3,810.5Z"/><path class="cls-2" d="M1117.4,688l11.5,2.8c3.8,1,6.5.6,7.2-4.1s4-6.6,8.5-6.8c8.2-.4,14.9,2.8,20.2,9a11.2,11.2,0,0,1,2.6,10.1,27.7,27.7,0,0,0,.2,12.3c.8,2.8,3.5,5.6,6.1,7.2,9.4,5.8,12.3,13.3,8.6,23.5-.7,2-.3,4.5-.6,6.7s-.1,4.7-1,6.7c-1.9,4.4-5,5.9-10.3,5.2-10.2-1.5-15.7-6.7-17.5-16.8-.7-3.6-2.7-7.1-4.3-10.5-2.3-5.1-4.5-10.2-7-15.2-.8-1.6-2.4-2.8-3.6-4.2-1.2,1.5-3.4,3-3.6,4.7-.9,6.8-4.7,13.2-2.7,20.6.4,1.4-2.2,4.3-4.1,5.4-3.8,2.1-4.5,4.2-1.4,7.2s4.7,7,1.2,11.6c-1.2,1.6-.5,5.5.6,7.7s4.4,7,6.8,10.4c3.7,5.3,6.8,6.4,13.3,4.8,9.2-2.3,19.8,5,20.7,14.5,0,.5-.1,1.1.2,1.5,5.6,6.9,2.3,14.7,2,22.1s-2.7,9.8-10,10.3h-2.5c-11.4.6-21.4-1.1-27.6-12.6-2.4-4.5-7.4-7.6-10.8-11.6s-3.7-7.1-.2-11.1,2.8-7.9-2.3-9.3c-10.9-3-16.9-11.2-23.3-19.3-1.3-1.7-2.5-3.7-4.2-4.9-5.4-3.8-4.8-9-3.7-14.3s2.2-12.1,3.7-18a14.3,14.3,0,0,1,3.1-6.1c2.4-2.7,2.2-5.3,1-8.3-6.9-16.7.8-28.9,19.2-30.2l4-.2Z"/><path class="cls-2" d="M568.1,760.6c-8.2-1.7-13.5,1.2-18.2,6.4a31,31,0,0,1-8.1,6.5c-5.8,3.2-13.1,1.2-15-5.6-.6-2.1-2-4.5-3.8-5.6-8.8-5.1-8.9-13.7-9.7-22.1a16.4,16.4,0,0,1,.7-5.9c3.1-10.5-4.1-17.8-12.1-22s-9.9-8.5-3.7-16.6,15.5-13.1,26.5-14c5-.4,9.9-2.5,14.8-4s6.8-2.6,9.7.6a9.1,9.1,0,0,1,1.3,10.7c-1.6,3.2-4.3,5.8-6.7,8.5s-3.1,2.5-4.6,3.8c-7.6,6.7-7.5,9.3-.5,16.5,2.3,2.4,3.8,5.8,5.1,9,3.5,9,8.4,11.8,17.8,10a17.5,17.5,0,0,1,5.4-.2c6.8.9,11.8-2.2,14.6-8.4a28.7,28.7,0,0,1,5.9-8.8c3.6-3.5,4.3-7.4,2.8-11.8s-4.6-7.5-9.9-7.6c-8.3-.1-10.4-2.2-14.2-11.3-2.6-6.4-.4-10.9,4.2-15.1s9.5-7.1,16.2-6c2.2.4,4.6-.3,6.9-.5,8.3-.7,16.1,2.9,24.6,2.9s11.4,8.2,6.5,15.8c-3.9,6-6,11.8-2.8,18.7a2.4,2.4,0,0,1,.3,1.5c-3.3,13.5-.2,29.3-14.1,39a8.9,8.9,0,0,0-3.1,3.9c-2.4,6.4-7.5,7.6-13.4,6.8a19.5,19.5,0,0,0-13.2,2.8C575.2,760.2,571,760,568.1,760.6Z"/><path class="cls-2" d="M1143.7,580.7a17.4,17.4,0,0,1,14.8,6.8c2.1,2.7,5.9,4.2,7.6,7.1a131.8,131.8,0,0,0,13,16.8c5.8,6.6,2.3,14.1-6.5,16-7.2,1.5-12.9,4.4-15.5,11.6a2.3,2.3,0,0,1-.8,1.2c-10.2,5.7-17.4,16.5-30.2,17.6-5.9.5-11.8,1.4-17.7,1.2-2.6-.1-5.5-2.3-7.4-4.4-3.8-4-7.4-7.6-13.3-8.8-3-.6-5.8-3.7-8.1-6.3-4.7-5.5-10.1-8-17.5-7.6a28.7,28.7,0,0,1-12.5-2.2c-5.3-2.3-6.3-7.1-4.6-12.6a29.7,29.7,0,0,0,1-10c-.3-8.3,4.2-14.1,9.3-19.7a22.5,22.5,0,0,1,4.7-3.7c9.3-6,10.6-13.8,7.1-24s-1.5-13.5,9.4-14.7a35.6,35.6,0,0,1,27,7.7c4.5,3.5,9.8,6.1,14.8,8.9,3,1.6,6.3,2.9,6.2,6.9a8.9,8.9,0,0,1-6.5,8.6,45.9,45.9,0,0,1-10.2,1.4c-1.8.1-3.6-.4-5.5-.6-11.3-.8-13,.9-13.4,12-.1,3-1.4,6.1-2.7,8.9-4.1,9.2-2.6,14.4,5.7,19.9a16,16,0,0,1,3.6,3.4c4.9,6.2,10.1,7.2,17.4,4a23.9,23.9,0,0,1,9.6-1.4c5.4.1,8.4-2.8,10.3-7.2s1.9-8.5-1.8-11.5c-6.6-5.3-4.9-11.3-2.3-17.5S1134,580.6,1143.7,580.7Z"/><path class="cls-2" d="M181.9,544.9c7.8,0,14.5,2.7,20.8,7.2a154.3,154.3,0,0,0,15.6,9.5c3.1,1.7,6.6,3,6.3,7.4a9.1,9.1,0,0,1-6.8,8.4,43.7,43.7,0,0,1-10.3,1.3c-2.1.1-4.3-.5-6.5-.6-10.2-.5-11.8,1.3-12,11.4-.1,3.3-1.4,6.8-2.8,9.9-3.8,8.9-2.3,14.2,5.7,19.5a17.4,17.4,0,0,1,4,3.7c4.3,5.5,9.9,6.8,16.2,4.2a25.3,25.3,0,0,1,10-1.9c5.6.2,8.8-2.4,10.9-7.1s1.7-8.9-2.4-12.2c-6-4.9-4-10.5-2-16.3s5.7-8.8,12.2-8.8,13.2,1.6,18.1,7.5,10.6,8,11.8,15.5c.2,1.3,2.5,2.5,4,3.4,5.2,3,6.8,7.7,6.2,13.2s-5,6.8-9.4,7.5c-6.8,1.1-11.9,4.1-14.4,10.8a3.2,3.2,0,0,1-1.1,1.7c-10.2,5.9-17.6,16.7-30.7,17.8-5.6.5-11.2,1.3-16.7,1.1-2.6-.1-5.7-1.9-7.6-3.9-4.1-4.2-7.7-8.4-14.1-9.4-2.5-.4-5.1-3.1-6.9-5.4-5-6.2-11-9.3-19.1-8.4a23.5,23.5,0,0,1-9.3-1.1c-6.9-2.2-9.1-7.9-6.4-14.6.8-1.9,1.7-4.3,1.3-6.2-2.6-10.8,3.5-17.6,10.3-24.2a18.9,18.9,0,0,1,2.8-2.1c9.1-6,10.3-12.2,7.7-23.1-2.9-12.6-1-15.6,12.3-15.9Z"/><path class="cls-2" d="M675.2,316c9.1,1.2,18.6,3.1,25.3,12.1,2.2,2.9,6,4.6,9.1,6.9s4.3,2.6,6.2,4.2c4.8,4.2,4.2,10-1.4,13.2a17.8,17.8,0,0,1-14.9,1.1,62.4,62.4,0,0,0-6.6-2.2c-5.2-1.1-9.9,2-9.8,7.1s-2.2,11.6-5,17-2.9,8.2,1.7,13.4c2.8,3.2,5.6,6.6,8.1,10s7.4,5.1,12.4,4.7,9.6-.8,14.4-.8,7.3-2.4,9.1-5.9,2.6-8.6-.3-12.8c-4.4-6.5-3.8-16.8,1.7-22.6a8.8,8.8,0,0,1,5.7-2.3c6.3-.1,12.3,1.2,17,5.9s12.6,10.6,13.5,19.7c.2,1.6,2.6,3.4,4.3,4.4,4.7,2.6,5.5,6.8,5.2,11.5s-3.2,7.5-7.7,8.7a56.2,56.2,0,0,1-6.3,1.5c-4.4.7-7.3,3.1-10,6.7s-5.4,4.5-8.2,6.6c-1.3,1-3.2,1.3-4.2,2.5-7.4,8.2-17,9.2-27.1,8.5a19.3,19.3,0,0,0-5.4-.1c-5.9,1.3-10-.9-13-5.9s-5.9-8-11.4-9.8c-2.8-.9-5.4-3.9-7.2-6.6-4.2-6.5-9.8-10-17.7-10.3a24.9,24.9,0,0,1-9.6-2.4c-6.1-2.9-7.3-7.9-4.8-14.2a27,27,0,0,0,1.5-9.9c0-9.4,6-15.1,11.9-20.9a12.1,12.1,0,0,1,2.5-1.6c10.5-6.1,13-12.2,9.8-23.9C661.6,320.6,665.1,316.1,675.2,316Z"/><path class="cls-2" d="M917.6,824.6c11.1.7,15.6-1.4,17.6-8.4a11.9,11.9,0,0,0-.5-7.1c-1.9-4.8-4.5-9.2-6.6-13.9s-5.9-8.4-12.2-8.4c-3.9,0-7.8-1.3-11.7-2.3s-8.2,0-10.6,4.2c-3.4,5.8-7.3,10.9-13.5,14.3-4.1,2.2-4.2,7.6-1,11.3,1.7,2,3.9,3.6,5.8,5.5,4,3.9,6.5,8.6,5.9,14.3s-5.3,8.7-10.9,6.6c-3.1-1.2-5.9-3.1-8.9-4.5s-6.4-3.1-9.7-3.7c-11.4-1.9-18-9.5-22.9-18.9-3.4-6.6-.6-10.7,6.5-12.9a40.2,40.2,0,0,0,13.5-7.1c2.2-1.9,3.5-6.1,3.4-9.2a37.7,37.7,0,0,1,4.9-19.6c2.3-4.1,4.7-7.8,10-8.9,2.1-.5,3.9-2.9,5.4-4.8,4.5-6.1,10.8-7.2,16.5-2.3a33.4,33.4,0,0,1,6.5,7.6,17.4,17.4,0,0,0,14.4,8.6c5.6.4,10.6,1.9,15,5.8,2,1.7,5.5,2.2,8.4,2.3,6.7.3,10.7,2.8,14.3,9.3s8.4,13.8,8.9,21.7.9,17-2.3,24.9c-1.9,4.6-3,8.7-1,13.3a31.3,31.3,0,0,1,1.5,4.8c1.1,4.3,1,8.4-3.1,11.2s-8.3,4.4-13.5,1.4a10.9,10.9,0,0,0-7.8-.7c-11.3,3.5-30.9-4.7-35.5-15.4-.7-1.6-1.2-4.1-.4-5.2a165.8,165.8,0,0,1,11.3-13C915.8,824.4,917.3,824.6,917.6,824.6Z"/><path class="cls-2" d="M1380.3,287.7c4.4,1.5,8.8,3.1,13.4,4.3a10.7,10.7,0,0,0,6.1-.1c5.5-2.1,9.3.3,12.9,3.9s2.8,7.6.9,11.6a63.6,63.6,0,0,1-3.1,5.7c-2.1,3.5-2.1,7-1.3,11s0,7.3-.3,11c-.1,1.6-1,3.3-.8,4.8,1.2,11.1-4.1,19.2-11.7,26.4a13.8,13.8,0,0,0-3.2,3.8c-2.7,5.7-7.4,6.9-12.9,5.9s-9.6-.7-14.4,2c-2.6,1.5-6.5,1.7-9.7,1.3-8.1-1-14.6,1-20.1,7.2-3.2,3.6-7.4,6.1-12.7,6s-6.8-1.5-8.2-5.2-3.7-7.8-8.2-9.5a4.8,4.8,0,0,1-2.4-2.4c-3.1-7.1-5.8-14.3-4.3-22.2,2.2-12.1-.5-17.8-11.3-23.2-9.2-4.6-10.1-10.2-2.7-17.6s14.9-11.4,25.3-11.2c4.6.1,9.3-2,14-3.1s8.6-2.5,12,1.7,2.4,8.7-1.5,13.3a38.9,38.9,0,0,1-9.2,7.4c-7.9,5-8.2,9.6-1.8,16.3,3.1,3.2,5.1,7.6,7,11.8,3.4,7.5,4.7,8.5,12.8,8.3a107.7,107.7,0,0,1,11.9.4c4.7.4,8-1.7,10.7-5.2s7.4-8.6,10-13.6c1.5-2.8,1.5-7.1.7-10.3s-4.7-7.2-9.5-7.7c-8-.9-15.2-7.9-15.8-16.1-.2-2.2,1.4-5.1,3-6.9,6.3-7.4,14.9-8.8,24.1-8.4Z"/><path class="cls-2" d="M479.9,287.7c4.5,1.4,8.9,3,13.4,4.1a12.1,12.1,0,0,0,6.6-.1c5.5-2,9.3.5,12.8,4.2s2.6,7.3.9,11.1a52.7,52.7,0,0,1-3.1,5.7c-2.2,3.6-2.4,7.2-1.4,11.4s0,7-.3,10.5c-.1,1.6-1.1,3.3-.9,4.8,1.3,11.3-4,19.6-11.9,26.8a11.4,11.4,0,0,0-2.9,3.4c-2.8,6.2-7.9,7.2-13.8,6a18.3,18.3,0,0,0-13.4,2c-2.7,1.5-6.5,1.8-9.7,1.4-8.2-1-14.8,1.1-20.7,7.2-2.9,3-7.5,4.7-11.7,5.8s-7.7-1.2-9.2-5.7-3.6-7-7.7-8.7a5,5,0,0,1-2.5-2.3c-3.3-7.2-6-14.6-4.4-22.6,2.2-11.8-.4-17.4-11.1-22.9s-10.5-10.3-2.8-17.9,14.9-11.3,25.3-11.1c4.6.1,9.3-2,14-3.2s8.7-2.5,11.8,1.9,1.8,9.2-1.4,12.9a39.8,39.8,0,0,1-9.1,7.5c-8.3,5.2-8.7,9.7-1.9,16.6,2.9,3,4.9,7,6.6,10.9,3.7,8.5,5,9.4,14.3,9a40.9,40.9,0,0,1,8.9.2c5.7,1,9.7-1.1,12.9-5.5s7.1-8.1,9.4-12.8c1.5-3,1.6-7.4.7-10.7s-4.8-6.9-9.6-7.6c-2.8-.4-6.7-.6-8.1-2.4a54.4,54.4,0,0,1-7.6-14.4c-.6-1.5,1.6-4.5,3.2-6.3,6.3-7.1,14.7-8.6,23.7-8.2Z"/><path class="cls-2" d="M844.8,296.6a15.7,15.7,0,0,0,.5,3.9c1.2,3.1,1.6,5.8-1.8,7.8s-10.2,1.9-13.1-.1c-6.9-4.8-12.2-11-17.5-17.5-2.9-3.5-7.2-5.9-11.1-8.2-1.4-.8-4.3-.7-5.4.3s-1.4,3.7-.9,5.3c2.1,6,4.9,11.8,7,17.8a8.6,8.6,0,0,1-.3,5.7c-1.4,3.3-1.1,5.8,2.3,7.4s5.3,5,3.3,9.4a4.3,4.3,0,0,0,.5,3.6c5.5,7.7,14.7,10.6,23.8,7.9,7.2-2.2,14.2-.9,20.8,2.4,4.2,2.1,6.5,5.2,5.5,10.5-.4,2.2,1.2,4.8,2.2,7.1s3.2,5.1,4.1,7.8c2,6.2,0,9.4-6.2,11.3-1.1.3-2.6.3-3.3,1-8,7.7-16.5,1.3-24.8.7a6.9,6.9,0,0,1-4.6-2.8c-3.2-5-6.7-9.9-8.9-15.4s-4.1-6.3-8.3-6.5c-7.3-.4-14-1.7-20.3-6-2.9-2-6.8-2.4-10.4-3.3-8-2.1-12.5-8.3-11.5-16.6.6-4.5.4-8.4-2.7-12.2-1.1-1.3-1.3-4.4-.5-6,2-4.6.2-7.3-3.4-9.6s-7.2-7.4-8.1-13.1c-2.3-13.9,7.3-20.3,17.4-23.4,3.8-1.2,7.8-1.7,11.6-2.9s5.2-3.6,3.6-7.4.1-6.9,3.6-9.1c10.6-6.6,26.8-.8,30.7,11.2,1.9,5.8,4.2,10.3,10.8,13.1,4.2,1.8,6.5,8.3,9.5,12.8a86.8,86.8,0,0,1,4.8,7.8,31.5,31.5,0,0,1,1.7,4.9Z"/><path class="cls-2" d="M1273.1,221.3c1.8-4.9,3.5-9.9,5.4-14.8,1.1-2.8,3-5.2,4-8s.9-5.5-2.4-7.2c-6-3.1-7.2-7-4.4-13.3a21.7,21.7,0,0,1,28.1-11.3c5.2,2.2,9.7,2.7,15.6.3s11.2.5,16.9,1a80.9,80.9,0,0,1,8.5,1.3,12.5,12.5,0,0,1,3.8,1.8c1.7,1,3.1,2.7,4.9,3.3,4.7,1.6,4.8,4.8,3.1,8.3s-4.1,7-9.6,8a110.7,110.7,0,0,1-20.7,1.5,50.4,50.4,0,0,0-14.6,2.6,7.8,7.8,0,0,0-4.4,5.1c-.2,1.1,2.6,3.6,4.5,4.2,5.9,2,10.7,7,17.6,6.2,1.1-.1,2.9,2.5,3.8,4.2s3.6,4,6.8,2.6,7.1-1.1,9,3.3a4.8,4.8,0,0,0,3.4,2.3c9.2.8,17.5-4.6,21.4-13a26.9,26.9,0,0,1,16.9-14.6c3.6-1.1,7-.6,9.8,2.8,1.4,1.7,4.3,2.5,6.7,3.2s4.7.5,6.8,1.2c8,2.6,9.6,6.3,6.2,13.9-.1.3-.4.6-.4.9.2,10.2-7.8,14.4-14.5,19.3-1.8,1.3-4.2,2.8-6.2,2.6-6.1-.6-12.3-1.2-18-3.1-4.1-1.4-7.2-1-9.9,1.9-5.2,5.6-11.1,9.9-18.7,11.8-2.9.7-5.4,3.2-8,5-7.7,5.5-14.9,4.4-21.7-2.3-2.4-2.4-6.1-3.3-9.2-5s-4.8-2-5.8-3.8c-2.2-4-5-5-9.1-3.6-7.3,2.5-13.2-.2-18.9-4.7S1274.1,227,1273.1,221.3Z"/><path class="cls-2" d="M373.2,221.1c1.7-4.8,3.3-9.6,5.2-14.3,1.1-2.8,3-5.2,4.1-8s1.1-5.8-2.5-7.6c-5.7-2.8-6.8-6.3-4.5-12.5,4-10.8,17.6-16.8,28.2-12.2,5.4,2.3,10,2.9,16.1.4,4.5-1.9,10.9.4,16.4,1,3,.3,6,.8,9,1.3a10.4,10.4,0,0,1,3.4,1.6c1.8,1.2,3.3,3,5.3,3.6,4.5,1.5,4.6,4.6,3.1,7.9s-4.2,7.3-9.9,8.3a124.7,124.7,0,0,1-20.2,1.5c-5.4.1-10.8,1.6-16,3.1-1.5.4-3.3,3-3.4,4.7s2.1,3.3,3.7,3.8c6.1,1.8,10.9,7.2,18.1,6.4,1.3-.1,3.2,2.7,4.2,4.4s3.4,3.8,6.5,2.6,7.4-1.3,9.4,3.3a4.7,4.7,0,0,0,3.4,2.2c9.6.5,17.1-4.4,21.3-13.2a27.3,27.3,0,0,1,15.1-13.8c4.5-1.8,8.6-1.8,12,2.8,1.1,1.5,3.8,2.1,5.9,2.7s4.7.4,6.9,1.1c8.2,2.5,9.9,6.4,6.4,14.2l-.2.5c-2.6,6.2-8.9,15.1-14,19.1-2,1.6-4.8,3.3-7,3.1a79,79,0,0,1-18-3.2c-3.9-1.3-7-1-9.5,1.7-5.4,5.9-11.6,10.2-19.5,12.3-2.7.7-5.3,2.9-7.5,4.8-7.7,6.9-16.2,2.9-21.2-2.4-2.9-3.1-5.9-4.9-10.2-5.3a7.1,7.1,0,0,1-5-3.3c-2.2-4.3-5.1-5.4-9.4-3.9-7.1,2.5-12.9-.2-18.4-4.5S374,227.1,373.2,221.1Z"/><path class="cls-2" d="M164.5,179.8c6.2-.5,12.7,2.3,18,8.5,2.8,3.2,6.5,5.7,9.9,8.3s4.4,5.6,4.9,9.8a39.8,39.8,0,0,0,4.5,13.9c3.2,6,6.3,11.7,7.7,18.7,1.8,9.2,5.4,18,8.5,26.9,1.5,4.4,1.9,8.6-.8,12.4-1,1.4-3.2,3-4.7,2.9-8-.4-13.6,4-18.7,9.1-3,3-5.7,3.6-9.3,1.8a24.8,24.8,0,0,1-3.1-1.6c-12.1-8.5-25.1-8.6-38.6-4.6-4,1.2-7.2.5-10.9-1.4s-7.8-2.6-11.9-3.1-6.3-2.3-7.8-5.9c-2.4-5.6-5.1-11.1-7.7-16.7-.3-.7-1-1.6-.9-2.3,1.7-7.5-.5-15.6,3.6-22.7a12.4,12.4,0,0,0,1.7-5.6,14.3,14.3,0,0,1,17.6-13.9,26.8,26.8,0,0,1,8.8,4.3c1.2.8,1.9,3,2,4.6.1,6.6-.5,13.1-.2,19.7s4.1,8.4,9.5,5.6,7.2-1.8,10.7.5,7.9,3.7,12.6,1.3c2.5-1.3,5.9-.8,8.8-1.4s6.8-2.2,5.8-7.4c-.5-2.6.4-5.6,1.4-8.2,1.6-4.4.5-7.6-3.1-10.5s-9.6-8.6-14.8-12.4-9.5-5.4-14.3-8.1c-7.3-4.2-8.5-7.1-6.1-15.2C149.6,181,153,179.4,164.5,179.8Z"/><path class="cls-2" d="M513.1,637.5c-.9,9.9-3.6,18.2-12.4,23.7-3.3,2.1-5.8,5.4-8.6,8.3s-6.2,4-10.7,4a37.5,37.5,0,0,0-14.8,3.2,64.4,64.4,0,0,1-19,5.4c-9.1,1-18.2,3.2-27.2,5.3-4.4,1-8.4,1-11.9-1.7-1.6-1.2-3.2-3.9-2.9-5.7,1.1-7.5-2.2-13.5-6.5-18.7s-3.4-7.2-.6-11c.5-.7.9-1.4,1.4-2.1,9.8-11.1,11.3-24.1,8.8-37.9-.7-3.9.1-6.9,2.4-10.2a28.2,28.2,0,0,0,4.4-10.9c.9-4.9,3.7-7,8.1-8.2s10.7-3.5,16-5.2c.8-.3,1.7-.9,2.3-.7,7.2,1.7,14.3,3.4,21.4,5.3,3.1.8,5.9,2.9,9,3.3s6.3,2.2,7.8,5.9c2.9,7.5,2.9,14.5-3.1,20.3-1.6,1.5-4.6,2-7,1.9-6.7-.3-13.5-1.5-20.2-1.7-4.3-.1-6.5,3-4.9,7.1s1.1,9.6-2.6,13.7-2.8,6.1-1.7,9.8.3,6.3.6,9.4,1.5,7.4,6.9,7c2.5-.2,5.3.9,7.5,2.1,4.6,2.5,8.1,1.4,11.5-2.2s8.7-8.1,12.9-12.3a54.3,54.3,0,0,0,5.4-6.5c2-2.7,3.6-5.6,5.6-8.3,4.6-6.1,13.3-7,18.5-1.3C511.7,630.7,512,634.5,513.1,637.5Z"/><path class="cls-2" d="M1412.2,641a23.7,23.7,0,0,1-11.5,20.2c-3.3,2.1-5.8,5.4-8.6,8.3s-6.2,4-10.7,4a38,38,0,0,0-14.8,3.2,65.1,65.1,0,0,1-19,5.4c-9.1,1-18.2,3.1-27.2,5.3-4.6,1.1-8.7.9-12.3-1.9-1.4-1.2-2.8-3.7-2.6-5.4,1.2-7.7-2.3-13.7-6.8-19.1-3-3.7-3.1-6.6-.6-10.2a25.2,25.2,0,0,1,1.7-2.5c9.5-10.7,11.4-23.4,9-36.9-.8-4.6-.1-8.2,2.9-12s3.3-6.6,3.8-10.1,3.6-7,8-8.3,10.7-3.5,16-5.2c.8-.3,1.7-.9,2.3-.7,7.2,1.7,14.3,3.3,21.4,5.3,3.1.8,5.9,2.9,9,3.3s6.3,2.1,7.8,5.8c2.9,7.4,2.9,14.5-3.1,20.3-1.6,1.5-4.6,2.1-7,2-6.7-.3-13.5-1.5-20.2-1.7-4.4-.1-6.6,3.1-4.9,7.5s1,8.9-2.4,12.8-3.2,6.2-2,10.2.3,6.6.7,9.9,1.8,6.8,6.9,6.6c2.6-.1,5.5,1,8,2.3,4.3,2.2,7.5,1.1,10.7-2.1s9.7-8.5,14-13.3,6.6-9.2,10-13.7c4.5-6.1,6.9-6.8,13.6-4.5S1412.5,630,1412.2,641Z"/><path class="cls-2" d="M1062.4,179.6c8.2-.4,14.8,2.4,20.2,8.8,2.7,3.2,6.5,5.7,9.9,8.3s4.1,5.4,4.7,9.3a49.4,49.4,0,0,0,5.2,15.2c3,5.6,5.7,11,7,17.4,1.9,9,5.6,17.6,8.1,26.5a26.1,26.1,0,0,1,.8,10.6c-.6,3.7-3.1,5.7-7.6,5.5-7-.3-12.3,4-16.7,8.7s-6.3,3.8-10.1,1.7a39.5,39.5,0,0,1-3.5-1.9c-11.5-8-24-7.8-36.8-4.2a14,14,0,0,1-11.8-1.3c-3.3-1.9-7.5-2.6-11.4-3s-6.6-2.3-8.2-6.1c-2.4-5.6-5.1-11.1-7.7-16.6-.3-.6-.8-1.3-.7-1.8,1-7.4,2-14.9,3.2-22.3.4-2.2,2-4.3,2-6.5a14.4,14.4,0,0,1,17.8-13.7,20.3,20.3,0,0,1,8,3.8c1.5,1.2,2.3,3.8,2.4,5.8.3,6.6-.3,13.2.1,19.7s4.2,7.6,9.1,5,7.5-2,11.2.5,7.6,3.5,12.1,1.3c2.5-1.3,5.8-1,8.8-1.4,4.9-.7,6.1-2.7,6-7.7a25.9,25.9,0,0,1,1.7-8.7c1.4-3.9.6-7.2-2.7-9.2-10.6-6.4-18-17-30.1-21.6-6.9-2.6-7.6-6.3-5.9-13.4s3.5-8,10.9-8.5Z"/><path class="cls-2" d="M578,214.3c-7.5-1.9-14.3-3-20.6-5.4s-8.9-8-5.2-15.2c1.8-3.6,4.1-6.8,6-10.4,3-5.7,2.2-7.7-2.5-12a14.7,14.7,0,0,1-4-7.1c-2.6-10.4-.9-19.1,8.9-25.7,4.6-3.1,8.1-8.2,11.2-12.9s5.1-5.8,9.3-6.7c6.1-1.4,12.4-2.8,18.2-5.1,10.5-4.2,20.7-9,30.9-13.9a27.4,27.4,0,0,0,7.4-5.7c2.7-2.7,5.5-3.5,9-2.2l11.7,4.4c3.9,1.4,5.1,3.8,3.8,7.8a25.3,25.3,0,0,0-1,6.8c-.3,8.3-3.8,15.1-9.7,20.7a7.4,7.4,0,0,1-3.4,1.6c-4.6,1-9.4,1.4-13.9,2.8s-9.9,1.6-14-3c-1.8-2-5-2.8-7.6-4s-2.8-.5-3.7-1.4c-4.2-4.1-8-2.3-12.1.3-5.9,3.8-10.7,8.4-13.2,15.1-1.2,3.1-.8,5.1,2.3,7a8.6,8.6,0,0,1,3.2,5.8c.4,5-.3,10,.3,14.9.3,2.5,1.9,5.7,3.8,6.7s4.9-1.3,6.6-2.9,6-5.3,10.9-4.1c1.7.4,4.3-1.2,5.9-2.6s3.4-4.1,5-6.2c2.9-3.8,6-5.4,10.5-1.9s6-.6,8.4-2.8c4.9-4.5,9.4-4.1,12.7,1.5a8.6,8.6,0,0,1,.8,6.5c-2.9,7.7-6.8,15-14,19.6-12,7.7-24,15.8-36.7,22.2C595.4,210.7,586.2,211.9,578,214.3Z"/><path class="cls-2" d="M961.9,420.3c2,0,4.2-.6,5.9.1s4.5,2.6,4.6,4.1c.3,5.5,3.7,6.4,8,6.9,6.7.9,8.7,3.4,7.7,9.5-.5,3.3-2.3,5.2-5.5,6.3-9.3,3.1-18.6,3.9-27.9.8-13.4-4.5-27-8.5-39.9-14.1s-21.7-15.4-26.8-28.4c-4.2-10.6-1.1-15.7,10.1-17.6a104.8,104.8,0,0,0,10.7-2.1c3.9-1.1,6.1-3.6,5.8-8.1-.7-9,10.7-20.2,19.9-19.7,2.8.1,5.6,1.1,8.4,1.2a129.8,129.8,0,0,0,16.7-.1c4.2-.4,7.6-.1,11.2,2.5a137.8,137.8,0,0,0,18,11.6c9.3,4.8,18.8,9.1,28.4,13.2,3.3,1.4,7.2,1.2,10.6,2.4s4.6,2.2,5.6,4.1c2.1,4.1,3.4,8.6,5,13s.3,6-3.4,7.5a21.1,21.1,0,0,0-5.9,3.5c-6.5,5.6-14.2,7-22.4,6.2a6.2,6.2,0,0,1-3-1.3c-3.9-3-7.4-6.5-11.5-9.1s-7.3-6.3-6.5-12.3c.4-2.7-1.2-5.6-2-8.4s-1.7-2.8-1.5-4.1c.5-5.5-3.1-7.1-7.4-8.4-7-2.2-13.9-3.1-21-.3-3,1.2-4.6,2.9-3.4,6s-.4,4.9-2.7,6.8a157.7,157.7,0,0,0-12.2,11c-1.3,1.3-2.4,4.4-1.7,5.7s3.6,3,5.5,3.2c5.1.3,8.9,1.6,12.2,6.2,1.7,2.3,6.6,2.3,10.1,3.3Z"/><path class="cls-2" d="M888,.9c12,0,24,.2,36-.1,5.5-.2,9.3,1.9,12.2,6.2,1.5,2.2,3,4.4,4.6,6.5s5,4.4,9.4,3.6,11.5-.4,17.3.1c1.9.2,4,1.6,5.6,3,3.4,3.1,8.3,6.2,9.3,10.1,1.9,7.2,3,15.4,1.3,22.5-1.1,4.7-8.5,4.2-13.8,3.9-2.7-.1-6.1.2-8.1,1.7-3.7,2.7-7.1,2.7-10.6.6-6.7-4-11.3-9.8-13.2-17.5-2.2-9.3-9.2-15.9-18.6-16.8a5.5,5.5,0,0,0-4.1,2c-2.5,3.1-5.2,3.4-8.3,1.4s-6.2-1.6-8.9,1.7c-1.2,1.5-4.1,1.8-6.3,2.3-6.4,1.3-13,2.1-19.4,3.8-3.1.8-3.1,5.2.3,7.1a88.5,88.5,0,0,0,15.9,6.7c7.3,2.4,15.3,3.3,22.2,6.6,2.9,1.4,4.3,7.1,5.2,11.1s-2.4,4.5-5.6,4.9c-1.4.2-2.6,1.5-4.1,1.8a38.5,38.5,0,0,1-6.3.8c-1.9.1-3.9-.1-5.8.1-7.6.8-14.9,1.8-21.6-4.2-2-1.8-6.9-1.3-10.4-.7-12.1,2-19-.8-24.6-11.7-1.7-3.2-2-7.3-2.1-11s1.7-5.1,5.1-5.7c5.2-1,6.5-3.4,5.3-8.6-.7-2.9-2-5.7-2.6-8.6a41.2,41.2,0,0,1-1.2-9.8C842.3,2.9,844.4,1,856,.9Z"/><path class="cls-2" d="M1.7,406.3c0-5,.1-10,0-15-.1-2.8.7-4,3.7-4.6,7.9-1.6,8.7-2.8,8.9-11.4.2-7,12.4-17.7,20.1-17.3,3,.2,5.9,1.2,8.9,1.3a116.6,116.6,0,0,0,16.2-.2c4.2-.4,7.6-.2,11.2,2.4a146.9,146.9,0,0,0,18.4,11.8c9.1,4.8,18.5,9,28,13,3.3,1.4,7.2,1.2,10.6,2.4s4.8,2.4,5.9,4.4c2.1,3.9,3.2,8.3,4.8,12.5s.4,6-3.3,7.5a31,31,0,0,0-6.7,4.2c-6.6,5.1-14.1,6.4-22.2,5.6a5.4,5.4,0,0,1-2.6-1.2c-3.8-3-7.4-6.5-11.5-9.1s-7.4-6.2-6.5-12.2c.4-2.7-1.1-5.6-1.9-8.4s-1.7-2.8-1.6-4.1c.4-5.5-3-7.1-7.3-8.5-7-2.2-13.9-3.1-21-.3-2.9,1.2-4.6,2.8-3.5,6s-.4,4.9-2.6,6.8a140.1,140.1,0,0,0-11.9,10.6c-1.4,1.5-2.7,4.7-2,6s3.8,3,6,3.2c4.7.5,8.6,1.1,11.3,5.8,1,1.7,4.4,2.5,6.8,2.9s5.3-.1,8-.3,6.8,1.1,7,5.7,4.5,5,8,5.6c6.4,1.1,8.8,3.9,7,9.8a10,10,0,0,1-5.3,5.7c-8.6,3.3-17.5,4.3-26.4,1.3C43.1,444.1,30,439.8,17,435.2c-11.4-4-18.1-11.3-15.4-24.4A23,23,0,0,0,1.7,406.3Z"/><path class="cls-2" d="M816.9,424.2c7.8,0,15.5.2,23.3-.1,2.7-.1,5.3-1.7,8.1-2.2s5.7-1.2,7.5-.1c9.9,6,20.3,11.7,27.2,21.5,2.3,3.3,3.3,7.5,5,11.2s3.3,7.8,5.7,11.2,6.6,7,9.6,10.8c4.1,5.4,3.5,8.5-.9,13.7-5.8,7-12.6,9.4-21.2,6-5.7-2.2-11.6-3.9-17.2-6.3-3.4-1.5-6.3-4.3-5.2-8.7s4.2-6,8.5-6.5c8.2-1.1,12.6-7.4,10.8-15.2-1-4.6-3.9-6.3-7.9-4.1s-9.2,2.2-12.9-1.3c-6.5-6.3-13.6-3.4-20.6-2.2a4.7,4.7,0,0,0-2.9,2.5c-3.5,7.8-10.1,10.6-18,11.4s-12.2,7.7-9.4,14.9c.6,1.6,3,2.8,4.9,3.7,5.3,2.7,10.9,4.8,15.9,7.8s8.7,4.5,14,2.9a13.1,13.1,0,0,1,12.3,2.4c4.6,3.6,7.2,9.7,5.6,13.5s-9.3,8.2-13.5,8.5c-9.5.6-18.2-2.2-26.9-5.3s-13-7.6-17.1-14.5c-2.3-3.8-6-6.9-9.4-9.9-10-8.7-21.1-16.5-24.6-30.3-.6-2.5.1-5.4.2-8.1,2.8.2,5.9-.2,8.4.8,5.4,2,10.8,5,15.9.7,2.5-2.1,3.7-5.9,4.8-9.2.6-1.7-.1-3.9-.1-5.9,0-8.3,3-11.8,11.3-13.1,3-.4,6-.6,8.9-.9Z"/><path class="cls-2" d="M602.8,231.7c5.3,1.9,10.3,3.9,15.4,5.6a45.2,45.2,0,0,0,9.4,2.6,50.3,50.3,0,0,0,10-.4c8.4-.8,13.8,1,15.4,5.3,3.2,8.8,1.5,17.4-5.3,22.1a162.3,162.3,0,0,1-18.4,11c-3.4,1.7-7.7,2.5-10.6-1.1s-1.8-7.7.6-11.5c4.1-6.6,2-14.1-4.7-17.6-4.2-2.2-7.4-1.1-8.3,3.4s-4.3,8.5-9.4,8.9c-9.3.7-11.4,8.6-15.4,14.6-.6.8-.1,2.6.4,3.8,2.8,7.3,1.6,13.9-3,20.2s-3.6,12.8,4,16.7c1.7.9,4.7.1,6.8-.8,5-1.9,9.7-5,14.9-6.4s10.5-4.2,13.4-10,10-8.5,16.7-6.8,9.8,13.1,3.9,20.5-13.4,12-21.2,16.6-14.3,4.5-22.2,3.5c-4.5-.6-9.2,0-13.7.6-13.1,2-26.2,5.2-39-1.2-2.3-1.2-4-3.5-6-5.4a70.8,70.8,0,0,1,5.6-5.7c1.4-1.1,3.3-1.6,4.9-2.5,8.6-5.2,9.2-13.4,1.5-19.9-1.7-1.4-3.4-2.7-4.9-4.3-4.2-4.2-5.4-8.6-2.1-13.5A196.7,196.7,0,0,1,558.3,258c3.7-4.2,7.5-7.8,8.8-13.5a7.5,7.5,0,0,1,4.4-4.7C581.7,236.8,592,234.4,602.8,231.7Z"/><path class="cls-2" d="M1365.4,442.1l10.4,2.2c2.8.5,5.6,1.3,8.3,1.2,5.2-.1,8.8,3.2,8.4,8.4a2.6,2.6,0,0,1-.2,1c-5.1,9.7-4.4,20-4,30.5s-3.9,19.8-9.8,28.3a35,35,0,0,0-3.5,5.5c-2.2,4.9-6,6.4-11.1,7s-8.4,2.4-12.7,3.5a30.9,30.9,0,0,1-8.3,1.3c-7-.2-12.6,2.2-16.9,7.8a31.8,31.8,0,0,1-7,6.4c-4.2,2.9-11.5,2.4-13.3-4.3-.7-2.5-2.5-5.5-4.6-6.8-8.9-5.5-8.9-14.1-8.7-22.8a9.5,9.5,0,0,1,.6-2.9c3.9-11.1-3.2-18.7-11.6-21.6s-9.2-10.1-3.7-16.1,14.5-12.9,25.4-13c3.9,0,7.9-2.3,11.8-3.7s7.7-4,11.5,0,2,9.3-1,13.1-4.8,4.6-7.3,6.7c-8.2,6.7-8.4,10.4-1.9,18.7a37.6,37.6,0,0,1,4.6,8.8c3.3,7.8,7,10.2,15.5,9.4,2.2-.2,4.3-.6,6.5-.6,7,0,11.6-3.1,13.7-10,.8-2.6,2.7-4.9,4.5-7,6.6-7.7,3.1-18.2-6.9-20.1-4.1-.8-7.5-2-9.7-6-5.1-9.3-3.3-16,6.3-20.4C1355.5,444.3,1361,443.4,1365.4,442.1Z"/><path class="cls-2" d="M877.7,208.7a3,3,0,0,1,1,.1c9.7,4.2,19.4,1.8,29.3.3s19.5,1.4,28.4,6c1.6.8,3.1,2,4.9,2.5,7.4,2,10.4,7.1,10.9,14.3.1,1.6.4,3.7,1.4,4.7,4.8,4.9,4.7,11.5,6.6,17.4,1.1,3.5,4,6.7,6.6,9.5s5.7,4.1,8.1,6.6c5.3,5.6,4.2,11.2-2.3,15-2.2,1.3-4.7,3-5.8,5.2-4.6,9.7-13.5,11.7-22.2,10.9-11.9-1.2-18.6,1.1-23.2,15.4-1.9,6.1-6.2,8.5-11.9,5.6-9.6-4.9-16.2-12.4-18.5-23.3-.9-4.1-2.9-8-4.6-12-1-2.3-2.6-4.3-3.2-6.7-1.1-4,.4-6.8,4.8-7.7s10.1.8,14.1,4.6a66.6,66.6,0,0,0,6.9,6.5c4.7,3.5,8.7,2.7,13-1.3a61.1,61.1,0,0,1,10.2-7.7c7.1-4.2,9-7.9,7.5-16.1-.5-2.4-.9-4.9-1.3-7.4-1-6.5-4.4-10.4-11-12a23.2,23.2,0,0,1-8-3.8c-3.7-2.7-7.5-3.6-11.7-1.6s-7.6,5.7-7.5,10.9-3.5,10-8.9,12.5-10.6,2.1-14.7-3c-6-7.5-9.3-16-7.7-26a36.4,36.4,0,0,0,.5-9.9C868.5,212.1,871.3,208.5,877.7,208.7Z"/><path class="cls-2" d="M465.3,442.1l10.4,2.2c2.8.5,5.6,1.3,8.3,1.2,5.3-.1,8.9,3.2,8.5,8.3a2.5,2.5,0,0,1-.2,1c-5.2,9.8-4.3,20.4-4,31s-3.9,19.1-9.5,27.4c-1.2,1.8-2.7,3.5-3.5,5.4-2.4,5.5-6.7,7.1-12.3,7.6-3.8.3-7.5,2.2-11.3,3.1s-6.1,1.7-9.2,1.6a19.1,19.1,0,0,0-16.1,7.4,35,35,0,0,1-7.7,7c-4.3,2.8-10.8,1.8-13-4.4-1.2-3.3-4.4-6-7-8.5-6-5.7-6.4-13.1-6.4-20.6a10.8,10.8,0,0,1,.7-3.4c3.8-11-2.7-18.5-11.5-21.6s-9.1-10.5-3.5-16.4,14.4-12.5,25-12.7c4.4-.1,8.7-3.1,13.2-4.1s7.6-1.6,9.1,0,2.3,6.4,1.6,9.4-3.5,5.8-5.7,8.4-4.5,3.5-6.4,5.5c-4.3,4.4-4.2,8.4-.7,13.4a81.1,81.1,0,0,1,7,11.9c3.2,6.7,6.7,9.1,14.1,8.6,2.2-.1,4.3-.6,6.5-.6,7.9.2,12.9-3.2,15.2-10.9.7-2.3,2.5-4.3,4.1-6.1,6.7-7.6,3.2-18.2-6.8-20.1-4.3-.8-7.8-2.2-10-6.4-4.8-9.2-3-15.6,6.5-20C455.4,444.4,460.9,443.4,465.3,442.1Z"/><path class="cls-2" d="M865.1,620.8l-7,1c-6.1.8-11.7,2.6-12.7,9.8s-1,18,6.9,21.4,14.7,8.8,22.1,12.9c4,2.2,6.2.6,7.4-4s3-7.5,3.9-11.4a32.6,32.6,0,0,0,.8-10.2c-.4-4.3,0-7.6,4.1-10.3,2-1.3,3.4-4.1,4-6.5s2.7-7.2,6.5-7a11.5,11.5,0,0,1,7.9,4.7c5.6,8.8,8.7,18.4,5.8,28.9s-5.6,19.8-8.8,29.6c-3.9,11.7-12,19.8-23,25-6.5,3.1-10.9,1.8-15-4.2a100.7,100.7,0,0,1-5.6-10c-1.9-3.7-4.9-5.6-9-6.2-10.8-1.7-19.1-12.8-18.8-23.5a41.9,41.9,0,0,0-2.2-14.1,19.9,19.9,0,0,1,.9-15.4c5.2-11.6,10.2-23.4,14.7-35.4,1.6-4.2,1.4-9,2.5-13.5.5-2.1,1.5-4.8,3.1-5.8a55,55,0,0,1,12.7-5.5c1.7-.5,4.9.6,5.9,2,4.5,6.5,8.8,13.3,12.7,20.3,2.3,4.1.5,7.9-2.3,11.4a56.7,56.7,0,0,0-7.2,10.7C873.1,619.9,870.4,622,865.1,620.8Z"/><path class="cls-2" d="M282.6,558.1c-5.4-1.4-11.3-2.5-16.9-4.3s-6.8-5.8-6.1-10.7a80.9,80.9,0,0,1,2.9-11.6c1.4-4.4,1.3-8.2-1.7-12.2-6.5-8.8-4.6-22.2,3.2-30a50.6,50.6,0,0,0,8.7-11.9,19.1,19.1,0,0,1,10.8-9.6c12.6-4.8,25-10,37.3-15.4,3.5-1.6,6.3-4.8,9.7-6.8s5.2-2.7,7.5-2.2c14.5,3,16.3,6.1,12.9,20.3-.9,3.9-2,7.7-3,11.6s-4.3,7.5-9.5,8.1a98.9,98.9,0,0,0-15,3.1c-3.5,1-5.9.2-8.5-2.3a95,95,0,0,0-10.6-8.2,9.2,9.2,0,0,0-4.6-1.8c-7.6-.3-11.6,5.1-15.1,10.6s-5.1,9.5-1.4,15.3c2.1,3.3,2.6,7.7,3.6,11.7s.8,6.3,1.8,9.3,4.1,4.7,7.8,2.5,7.4-3.3,10.8-5.4a34.5,34.5,0,0,0,8.2-6.8c2.8-3.4,5.5-5.2,10.3-4.1,2.2.5,4.9-1.4,7.4-1.8s6.9-1.7,9.2-.4,3,5.5,2.6,8.2c-1.5,9.1-5.2,17.7-13.1,22.7a388.6,388.6,0,0,1-35.1,18.9C292.7,556.9,287.8,557,282.6,558.1Z"/><path class="cls-2" d="M1183,558.1c-5.6-1.3-11.4-2.4-17.1-4.2s-7.1-5.9-6.2-11.1,2.7-8.6,3.1-13-.1-7.1-1.7-9.7a24.7,24.7,0,0,1,3.6-31.3,48.1,48.1,0,0,0,8.3-11.6,18.6,18.6,0,0,1,10.4-9.3q18.8-7.2,37.3-15.4c3.7-1.6,6.6-5,10.1-7.1s5-2.5,7.1-2a40.1,40.1,0,0,1,11.9,4.8c1.6,1,3.2,4.1,2.9,6a143.8,143.8,0,0,1-5.5,22.7c-.9,2.7-4.6,5.2-7.5,6.2a80,80,0,0,1-17,3.5c-2.4.3-5.3-.9-7.4-2.3-4-2.6-7.6-5.9-11.6-8.6s-8.1-2.4-11,.8a65.3,65.3,0,0,0-10.4,14.7c-1.1,2.3.7,6.1,1.5,9.1s2.3,7.6,3.2,11.4.8,6.3,1.7,9.3c1.4,4.5,4.2,5,8.1,2.5s7.1-3.2,10.4-5.2a33.2,33.2,0,0,0,8.3-6.7c2.9-3.6,5.8-5.5,10.7-4.2,2,.5,4.6-1.4,6.9-1.8s6.6-1.6,9.3-.7,3.4,5.5,2.7,8.7c-2,9-5.4,17.6-13.4,22.6-11,6.8-22.5,12.8-34.2,18.5C1193.3,556.8,1188.2,556.9,1183,558.1Z"/><path class="cls-2" d="M1201.9,110c1.9-4.2,3-7.8,5-10.7,3.2-4.8,3.6-9.4.7-14.5s-6.8-12.6-10.3-18.8a29.3,29.3,0,0,0-15.9-13.7c-2.7-1-4.5-.6-6.4,1.8s-4.6,4.2-6.7,6.5-3.8,4.2-4.5,6.7c-1.4,4.6-1.9,9.4-2.7,14.2a5.9,5.9,0,0,0,.1,3.4q5.3,10,11,19.8c1.7,2.9,4,5.4,5.4,8.3s.2,6.3-4.2,6.9a38.1,38.1,0,0,0-7.3,1.3c-9.1,3.3-18.5-.6-21.8-9.8-1.8-5.1-2.4-10.7-3.4-16s-1.6-8.5-2.3-12.7a21.1,21.1,0,0,1-.5-4.4c.2-6.1.6-12.1,1-18.2.1-2.1.6-4.3.7-6.4a79.5,79.5,0,0,0,.1-11.1c-.3-3.2.1-5.8,3.5-6.7,4.9-1.3,7.2-5,9-9.3s2.6-6.5,4.2-9.6c3.1-5.9,7-7.1,12.7-3.8,2.4,1.4,5,2.9,6.8,5a203.8,203.8,0,0,1,14.4,19.4c2.7,4.3,5.4,7.6,10.7,7.5s10.8,3.3,12.7,9.7,6.4,9.9,11.3,13.5c7.9,5.9,8.2,7.8,3.9,16.5-.7,1.4-1.3,3.7-.6,4.7,4,6,.6,12.8,2.1,19,.4,1.7-2.3,4.4-4,6.2s-5.1,4.3-7.3,6.6-7.3,4.3-10.3.7S1204.2,114.1,1201.9,110Z"/><path class="cls-2" d="M302,110.1c1.7-4,2.5-7.5,4.5-10.3,3.7-5.3,3.9-10.2.7-15.8s-6.3-11.7-9.5-17.5a29.8,29.8,0,0,0-15.2-13.8c-3.5-1.4-5.9-1.4-7.9,2.2a9.4,9.4,0,0,1-3.7,4c-6,2.8-7.7,7.7-8.1,13.8-.2,2.6-1.4,5.2-1.4,7.8a24.4,24.4,0,0,0,1.5,7.5c2.9,8.8,8.6,15.9,13.8,23.3,3.7,5.3,1.7,8.3-4.6,8.9a23,23,0,0,0-5.8,1.2c-9.2,3.3-18.5-.4-21.8-9.6-1.9-5.1-2.4-10.7-3.5-16-.3-1.3-.2-2.7-.4-4-1.1-6.8-3.7-13.3-.8-20.5,1-2.3-.4-5.6-.4-8.4s.5-6.6.6-9.9a56,56,0,0,0,0-9.7c-.4-3.3-.5-6.3,3.2-7.3,5.4-1.5,7.5-5.6,9.5-10.1a112.1,112.1,0,0,1,4.8-10.4c2.3-4.1,6.3-5.6,10.2-2.9a64.8,64.8,0,0,1,12.3,11.2c4.9,5.8,8.7,12.4,13.5,18.2,1.6,1.9,4.9,2.9,7.5,3,6.8.3,10.9,3.3,12.8,9.7s6.6,10.1,11.6,13.9c7.6,5.7,7.9,7.8,3.7,16.2-.7,1.4-1.4,3.7-.7,4.7,4,6,.6,12.8,2.2,19,.4,1.7-2.2,4.4-3.9,6.3s-5.1,4.2-7.3,6.6-7.5,4.3-10.7.5S304.2,114.1,302,110.1Z"/><path class="cls-2" d="M989.8,553.7h10.6c6.9.1,11.9-2.4,15-9.2a16.2,16.2,0,0,1,19.2-8.7c5.7,1.6,7.2,5,5.3,10.6a27.5,27.5,0,0,0-1.7,8.2c-.1,4.4-1.8,7.3-6.1,8.6s-9.4,7-15.9,6.4c-1.2-.1-2.9,2.5-3.9,4.1-3.2,5.3-6.1,6.6-12,4.6-2.4-.8-4.5-2.3-6.9-2.7-4.6-.9-9.5-2.1-14-1.6-6.3.6-11.2-.3-14.3-6.3s-6.6-5.9-11.7-5.9-7.5-.9-11.2-1.4-5-.2-7.4-.9c-5.4-1.8-11-3.4-15.9-6.1s-3.2-6.3-1.1-9.7,5.1-7,7.6-10.5,4.4-6.9,3-11.5,1.4-5.2,4.6-6.4,5.9-3.3,8.8-5,5-3.3,7.4-4.9l12.8-8.3a12.7,12.7,0,0,1,2.5-1.7c9.4-3.2,18.8-6.6,28.3-9.5,6.2-1.9,11.9.3,16.7,4.2,1.8,1.4,2.9,3.9,3.8,6.1s2.1,7.3,3.3,10.9.4,5.9-3.9,6.6a11.1,11.1,0,0,1-4.9.1c-8.9-2.9-17.8-.6-26.7-.6a7.2,7.2,0,0,0-4,1.6c-3.8,3-7.8,5.8-11.1,9.3s-2.8,5-3.7,7.7-.8,5.7-2.1,8.1-.8,5.5,2,7.6C969.3,553,975.2,554.4,989.8,553.7Z"/><path class="cls-2" d="M89.8,553.7h10.9c6.8,0,11.6-2.6,14.5-9.1a16.2,16.2,0,0,1,19.2-8.8c5.7,1.6,7.3,4.9,5.4,10.5a31.2,31.2,0,0,0-1.8,8.7c-.2,4.2-2,6.9-6,8.1-5.6,1.7-9.7,7-16.4,6.6-1.1-.1-2.7,2.7-3.7,4.3-2.8,4.7-5.9,6.1-11.2,4.4-2.5-.8-4.9-2.4-7.4-2.9-4.6-.9-9.5-2.1-14-1.7-6.3.6-11.2-.2-14.3-6.2s-6.6-6-11.7-5.9-7.5-.9-11.2-1.4-5-.2-7.4-.9c-5.4-1.7-11-3.3-16-6s-3.3-6.3-1.1-9.7,5.1-7,7.6-10.5,4.4-6.9,3.1-11.5,1.3-5.2,4.5-6.5,5.9-3.2,8.8-5,4.4-3,6.6-4.4l14-9.1a10.5,10.5,0,0,1,2.1-1.4c9.4-3.2,18.7-6.9,28.3-9.5s19.4,3.2,21.4,14.1a45.9,45.9,0,0,0,2.4,7c1.5,4.1.5,6.2-3.8,6.6s-7.3-.6-10.9-.6c-7.4,0-15-.8-22.1.7-4.2.9-7.6,5.7-11.5,8.4s-6.7,6.8-6.2,12.2a6.8,6.8,0,0,1-1.1,4.3c-3.6,5-.9,7.7,3.2,10.4C70.6,553.2,75.8,554.3,89.8,553.7Z"/><path class="cls-2" d="M734.8,257.8c-6.7-2.6-10.7,2.9-16.2,7.8s-12.8,14-22.3,17.1c-7.2,2.3-10.5.9-12.7-6.5-1-3.5-1.7-7.1-2.4-10.7s-2.5-7.8-6.7-9.9-3.1-4.4-1.9-7.7,1.4-6.6,1.9-10,.3-4.9.7-7.4c.8-5.9,1.6-11.7,2.5-17.6a13.6,13.6,0,0,1,.6-2.9l8.5-21.8c2.2-5.7,5.4-10.6,11.4-13.2s10.1-2.6,15,1c2.2,1.6,5.1,2.2,7.7,3.2s4.5,3.7,2.6,7a9.6,9.6,0,0,1-2.4,3.2c-7.7,5.3-12.8,12.8-18.3,20-2.8,3.6-2.9,22.3-.1,25.9s4.4,6.6,7.1,9.4a7.3,7.3,0,0,0,5.3,2.2,27.2,27.2,0,0,0,17.9-9.8c4.7-5.6,9.3-11.3,14.1-16.9s4.2-9.3,1.8-14.8c-3.2-7.4-1.4-15,4.2-20s9.7-3.5,13,2.1c1.5,2.5,4,4.4,5.4,7s3,6.1,2.2,8.4c-2,5.7-.7,12.4-5.5,17.3-.9.9-.2,4.2.6,6.1,2.1,4.9.3,8.4-3.6,11.2a18.8,18.8,0,0,1-4.4,2.4,27.5,27.5,0,0,0-14.9,12.6C744,256.1,741,258.5,734.8,257.8Z"/><path class="cls-2" d="M778.9,672.9c.1,4.9-.8,9.1-5.4,12.1-2.5,1.6-4.2,4.2-6.4,6.3-4,3.8-8.5,4.7-13.8,2.5-6.8-2.9-8.6-1.8-12.1,4.8-1.7,3.2-4.5,6-7.1,8.6s-4.5,3-6.1,5.1c-3.2,4.2-7.1,5.5-11.9,3.9-7.4-2.4-14.7-5.2-22.1-7.6-3.5-1.1-7.3-2.4-10.9-2.1-9.9.8-17-2.7-20.6-11.9a52.1,52.1,0,0,1-3.5-15.5c-.3-4.8-1.7-8.4-5.6-10.9s-5.2-6.6-4.7-11.3,5-9.6,11-8.9l5.9.9c4.8.8,8.2-1.1,10.9-5.1,4.2-6.4,6.4-6.9,13.9-5,4.2,1,8.4,1.8,12.7,2.5s7.8,1.9,7.9,7.2-2.5,11.1-7.1,11.1c-9.6,0-16.3,7.3-25.2,8.7-1.6.2-4,2.5-3.9,3.8a6.5,6.5,0,0,0,3.5,4.8c5,1.8,10.3,2.5,15.3,4.1a24.3,24.3,0,0,1,8.7,4.7c2.7,2.5,4.9,3.2,8.4,1.7a10.5,10.5,0,0,1,6.9-.3c9.4,3.2,17.2-1.1,19.1-10.9.4-2,.6-4,.9-5.9,1.7-11,6.2-15.3,17.3-16.4l3.5-.2C773.6,653.1,778.7,657.9,778.9,672.9Z"/><path class="cls-2" d="M1139.1,439h-5.5c-5.8.1-9.7-2.4-12-7.9s-4.9-7.3-12-5.1c-3.3,1-7.1,1-10.6,1.1s-5.4-1.2-7.9-.8c-6.4,1-10.3-2-12.8-7.2s-5.7-12.7-8.8-18.9c-1.7-3.3-3.5-6.9-6.2-9.2-8.5-7.5-10.6-15-5.6-25.3a42.4,42.4,0,0,1,7.1-10.8,15.1,15.1,0,0,0,4.3-13.5c-.7-5.3,2.4-9.8,7.2-11.8s8.7-1,12.4,4.5,8.8,9.5,16.6,7.1c4.4-1.4,7.5,1.4,9.9,5.1s5.1,8.2,7.9,12.1,3.9,7.7.8,11.2-9,5-13.1,2.9c-7.9-4-15.8-8.1-23.8-11.9-1.6-.7-4.9-.9-5.4-.1s-1.7,4.7-.9,6.4c2.2,4.6,5.5,8.7,7.8,13.3a23.1,23.1,0,0,1,2.8,9.5c.1,3.9,1.6,5.6,4.9,7.1a11.1,11.1,0,0,1,5,4.6c4.4,8.9,12.8,11.4,21.1,5.8l2.4-1.8c11.8-9,19-8.6,29.7,1.7s9.4,24.5-4.9,31.4c-2.9,1.4-6.8.6-10.3.9Z"/><path class="cls-2" d="M239.1,439h-6c-5.4,0-9.1-2.5-11.2-7.5-3.1-7.3-5-7.7-12.3-5.4-3.3,1.1-7.1,1-10.7,1s-6-1.1-8.9-.8c-4.8.6-8.3-1.2-10.4-5.2-3.5-6.8-6.5-13.8-10-20.6-1.8-3.4-3.6-7.2-6.4-9.7-8.3-7.4-10.4-14.8-5.6-24.9a43.2,43.2,0,0,1,7.1-10.8c3.8-4.1,5.4-8.3,4.5-13.9s2.4-9.4,6.9-11.5,9-1.1,12.8,4.6,8.6,9.3,16.3,6.9c3.9-1.2,7.1.7,9.4,4.1l9.9,14.9c2.3,3.4,2,6.6-.8,9.5s-8.7,4.7-12.8,2.7c-7.9-4-15.8-8.1-23.8-11.9-1.6-.7-4.9-1-5.4-.2s-1.8,4.7-1,6.3c2.3,4.8,5.6,9,8.1,13.7a21.1,21.1,0,0,1,2.5,9.1c0,3.8,1.5,5.7,4.8,7.2a11,11,0,0,1,5.1,4.6c4.4,9,12.8,11.5,21.1,5.8l2.8-2.1c11-8.5,17.1-8.3,27.9.7l1.2.9c11.7,10.7,9.8,24.9-4.6,31.8-2.9,1.4-6.8.6-10.3.9Z"/><path class="cls-2" d="M1273.1,572.8c-.9,5.3,1.4,9.5,7.2,12.3s6.5,6.1,5.6,12a136.3,136.3,0,0,0-1.7,13.8c-.2,4.2-1.1,7.5-5.9,8.5s-10.2-1.1-12-5.1c-3.6-7.9-6.9-16-10.6-23.8-1-2-3.1-3.5-4.8-5.2-1.7,1.9-4.3,3.5-4.9,5.6-1.2,4.4-1.1,9.2-2.1,13.7s-1.9,7-3.9,9.7-2.5,5.3-.8,8.6a10.7,10.7,0,0,1,.8,6.8c-2.2,9.3,2.2,16.3,11.7,17.7a83.4,83.4,0,0,0,8.5.5c7.2.3,12.4,3.5,14.9,10.4s3.8,15,1,22.4a12.1,12.1,0,0,1-5.9,6c-3.2,1.5-7.1,1.7-10.7,2.3s-9.2-.1-12.4-4.5a14.8,14.8,0,0,0-3.8-3.2c-6.4-4.4-9-9.9-5.9-17.6,1.8-4.4-.3-7.8-4.7-8.8-9.7-2.1-13.7-11.2-20.6-16.7-1.8-1.4-1.6-6.4-1-9.4,1.4-7.1,3.9-14,5.5-21.1a30.5,30.5,0,0,0,.7-11.1c-1.5-9.3,1.3-16.7,9.7-20.9a61.1,61.1,0,0,1,16.5-5.4c4.3-.7,6.7-2.8,9.1-5.9s4.4-4.8,7.1-5.6C1268.9,556.1,1273.5,560.8,1273.1,572.8Z"/><path class="cls-2" d="M373.1,572.9c-1,5.4,1.5,9.5,7.3,12.3s6.4,6,5.4,12a118.3,118.3,0,0,0-1.6,13.3c-.2,4.4-1,7.9-6.1,8.9s-10.1-1.3-11.9-5.3c-3.6-8.1-7-16.3-10.8-24.3-.9-1.9-3.2-4.4-4.6-4.3s-4.1,2.6-4.6,4.5c-1.2,4.8-1.3,9.9-2.4,14.7s-1.9,7-4,9.7-2.4,5.3-.7,8.6a9.8,9.8,0,0,1,.8,6.3c-2.4,9.8,2.2,16.9,12.2,18.2a19.6,19.6,0,0,0,4,.3c16-1.2,20.6,9.2,21.3,24.3a29,29,0,0,1-.6,6c-.8,5.1-3.3,8.6-8.8,9.5-2,.3-3.9.9-5.9,1.2-5.9.9-11.6,1.1-15.7-4.6-1.2-1.7-3.2-2.8-5-4.1-5.1-3.9-6.8-8.7-4.7-14.9s.5-8.3-5.7-10.9c-3.7-1.6-6.8-4.3-10.1-6.8-1.7-1.3-2.7-3.6-4.5-4.6-5.3-3-6.9-7.5-5.7-13.1s2.8-13.7,5.2-20.2c1.6-4.4,2.3-8.5,1.3-13.1-2-8.9,1.1-16.5,9.2-20.5a65.6,65.6,0,0,1,16.9-5.6c4-.8,6.7-2.3,8.7-5.7s4.3-5.7,8.4-6.3C369.2,556.8,373.5,561.4,373.1,572.9Z"/><path class="cls-2" d="M220,200.9c.6-4.6,1.4-7.7,1.3-10.9-.1-5.2-.1-10.6-1.2-15.7-1.6-7,1.1-11,8-9.3,4.7,1.1,7.9-.9,12-2.3,6.3-2.1,10.8-4.5,12.3-11.5.2-1.2,4.4-2.5,6.4-2.2,11,2,20.6,6.6,26.1,17.1a21.9,21.9,0,0,1,2,5.6c1.3,5.8,2.1,11.8,3.6,17.5a26.5,26.5,0,0,1-.5,15.1c-1.5,4.9-2.1,10-2.9,15-1.2,7.2-1.9,14.5-3.3,21.7-1.1,5.5-4.3,6.8-9.2,4-12.8-7.7-25.7-15.3-38.2-23.5-4.8-3.1-8.8-7.6-12.5-12C221.8,206.9,221,203.1,220,200.9Z"/><path class="cls-2" d="M1191.8,196.5a4.8,4.8,0,0,1-.1,1.7c-5.7,12.9-3.9,27.2-7.2,40.6-2.1,8.4-4.8,9.6-12.1,5.1-9.2-5.7-18.7-10.9-27.6-16.9a178.6,178.6,0,0,1-19.4-15.5c-6-5.4-4.8-12.8-4.4-20.1a78.5,78.5,0,0,0-1.2-18.1c-1-5.7,1.6-9.7,7.4-8.4s9.4.8,13.3-2.8a1.5,1.5,0,0,1,.9-.4c6.5,0,8.9-4,10.5-9.7.4-1.5,3.9-3.1,5.9-3.1,10.8-.1,24.8,9.2,28,19.5S1189.8,187,1191.8,196.5Z"/><path class="cls-2" d="M977,182.1c-6.6-.7-14.1-3-19.6-9.6-4.2-5-8.5-7.3-15.2-3.8-4.7,2.5-8.6-.6-11.6-4.3s-4.7-9.5-1.8-13.7a65.4,65.4,0,0,1,5.9-6.8c3.1-3.3,4.4-7.1,2.4-11.4s-.5-9.3,3.8-12.6,5.6-4.7,8.6-6.8,8.4-2.8,12.4.5,4.4,6.8,2.5,12.1c-2.7,7.8-5.1,15.7-7.2,23.6-1.1,4.1,1.9,6.4,6.1,4.2s9.1-6,13.6-9.1c.7-.5,1.1-1.7,1.7-1.7,8.9-1,12.9-8.7,19-13.6s6.5-14.2.9-19.1c-2.1-1.8-4.7-3.2-6.9-5-5.2-4.2-6.6-9.7-3.2-15.5a38.2,38.2,0,0,1,7.2-8.8c4.2-3.8,9-4.3,14.4-2.1,8.7,3.7,14.8,9.3,15.5,19.5.3,4.9-.9,8.6-5.6,11.2s-6,5.7-2.2,11.6c2,3.1,3,6.8,3.9,10.4s.8,7.6,1.8,11.3-.1,7.3-3.6,9.4c-7,4.3-14.4,8.1-21.2,12.6-2.2,1.5-3.8,4.4-4.9,7.1C990.5,179.2,986.4,182.2,977,182.1Z"/><path class="cls-2" d="M77.2,182.1c-6.4-.6-13.9-2.7-19.3-9.1s-8.9-8-15.9-4.2c-4.8,2.5-8.6-.9-11.5-4.6s-4.5-9.2-1.8-13.3a47.2,47.2,0,0,1,5.5-6.4c3.4-3.5,5-7.5,2.8-12.2s-.6-8.7,3.3-11.8,5.9-4.9,9-7.2,8.7-2.9,12.8.6,4.1,6.8,2.2,12.1c-2.8,7.7-5,15.7-7.1,23.6-1,3.8,1.9,6.1,5.9,4s9.4-6.2,14-9.4c.8-.6,1.4-1.9,2.2-2,9.8-.3,13-9.8,19.7-14.4,4.7-3.2,4.6-13.3,0-17.5-2.2-2-4.9-3.5-7.2-5.3-5.5-4.3-6.9-9.9-3.3-15.9a39.7,39.7,0,0,1,7.7-9c3.8-3.3,8.3-3.8,13.1-1.9,9.2,3.7,15.6,9.4,16.2,20,.3,4.7-.9,8.3-5.4,10.8-6.2,3.4-6.2,5.9-2.2,12,2,3,2.9,6.9,3.8,10.4s.8,7.3,1.8,10.8.2,7.4-3.3,9.5c-7,4.3-14.3,8.1-21.2,12.6-2.2,1.5-3.9,4.4-5,7C90.6,179.1,86.5,182.2,77.2,182.1Z"/><path class="cls-2" d="M1349.6,143.1c-4.8.3-8.4-1.9-10.5-7.1s-5.3-6.6-10.2-3.4a18.7,18.7,0,0,1-14.2,2.9c-2.8-.5-5.9.2-8.9.7s-7.3-.7-9-4.5c-3.4-7.5-6.5-15.1-10.1-22.5a12.7,12.7,0,0,0-5.2-5c-10-5.5-12.5-12-8.6-22.8,2.2-6.1,5.7-11.3,11.3-14.8s7.3-7.3,4.7-13.5,1.2-8.6,5.1-11.3,10-3.8,13.9-.8a16,16,0,0,1,3.5,3.5c4.1,5.8,8.9,9.3,16.5,6.7,1.4-.5,4.1-.3,4.7.6,4.2,6,9.4,11.9,11.7,18.7s-6.9,12.7-13.5,9.8-15.6-7-23.6-10.3c-1.4-.6-4-.6-4.9.3a5.4,5.4,0,0,0-.8,4.9c2.2,5,5,9.7,7.6,14.6.5.9,1.8,1.6,1.7,2.4-.6,9.5,7.8,13.9,11.7,20.8s13.7,7,18.8,1.9c1.9-1.9,3.4-4.1,5.3-6,4.8-4.8,10.1-5.3,15.8-1.7,7.5,4.8,11.7,13,9.8,19.1C1369,136.8,1360.8,143.2,1349.6,143.1Z"/><path class="cls-2" d="M449.9,143.1c-4.7.3-8.5-1.5-10.7-6.9s-5.4-6.9-10.5-3.6a18.1,18.1,0,0,1-13.7,2.8c-2.7-.5-5.6.1-8.4.6-4.8.9-8.2-.7-10.2-5.1-3.3-7.4-6.3-14.9-9.8-22.1-1-2-3.2-3.8-5.3-4.9-9.7-5.3-12.3-11.9-8.5-22.4a30.6,30.6,0,0,1,12.3-15.8c4.4-2.9,6.1-6.6,4-12s-.2-8.5,4.6-11.9,10.3-4,14.3-.8a19.2,19.2,0,0,1,3.8,4c3.9,5.5,8.7,8.6,15.8,6.1a7.3,7.3,0,0,1,4.4.2c4.2,1.4,13.1,16.3,12.6,20.7-.8,7.4-8.3,10.9-14.9,7.7s-15.3-6.9-23.1-10.1c-1.2-.5-3.5-.4-4.1.4s-1.6,3.6-1.1,4.9c2.3,5.1,5.1,10,7.8,15,.7,1.3,2.3,2.6,2.2,3.8-1.1,10.2,9,13.6,12.7,20.9,2.6,5.1,13.1,4.5,17.4.1,1.5-1.5,2.8-3.3,4.2-4.9,5.8-6.2,11.8-6.6,18.5-1.3s10,12.5,7.9,18.5C468.5,137.1,460.7,143.1,449.9,143.1Z"/><path class="cls-2" d="M586.6,614c-5.7.4-9.4-1.6-11.6-6.9s-5.3-6.8-10.9-3.2a16.6,16.6,0,0,1-12.3,2.6,26.2,26.2,0,0,0-8.9.5c-5.2,1-8.8-.6-10.9-5.5-3.1-7.2-6.1-14.6-9.5-21.7-1-2-3.2-3.7-5.3-4.9-9.7-5.3-12.2-11.3-8.7-21.9A29.8,29.8,0,0,1,521,536.8c4.4-2.8,6.2-6.5,4.1-11.9s-.1-9.1,5.2-12.5,10.5-3.5,14.6.4c2,1.9,3.7,4.2,5.6,6.4s6.5,4.6,10.8,3.3,8.7.1,11.5,4.4,4.4,6.7,6.4,10.1,1.7,8.8-1.9,12.3-7.5,3.3-11.9,1.2c-7.6-3.6-15.3-6.9-23.1-10-3.9-1.6-6.6,1.3-4.8,5.6s5,9.7,7.6,14.5c.5.9,1.8,1.6,1.8,2.3-.7,9.6,7.9,13.8,11.7,20.8s13.3,7,18.3,2.3c2.2-2,3.9-4.5,6-6.6,4.3-4.3,9.6-5.4,14.4-1.8a49.6,49.6,0,0,1,10,10.8c2.4,3.3,2.1,7.2.1,10.9C602.9,607.9,597.2,614.6,586.6,614Z"/><path class="cls-2" d="M594,84.2c-4.8-.7-8.2.7-10.2,6.1-.8,2.1-4.3,4.4-6.7,4.6-11.9,1-23.7,1.3-33.2-8.1a17.2,17.2,0,0,0-8.2-4.5c-2.5-.5-6.2,0-8,1.6s-1.9,5.1-1.4,7.5c3.2,18.3-7.8,28.6-22.6,26.5-6.9-.9-9.7-4.6-9.1-11.5.1-.8.4-1.9,0-2.4-5.2-7.6-1.5-16.5-3.8-24.5a10.1,10.1,0,0,0-1.9-3.9c-3-3.4-2.3-7.2-.4-10.2s4.5-3.3,7-3.5c6.7-.6,12.9.4,18.6,5.3S524.5,74,530,77c1.4.8,3.8,1,5,.2s1.1-3.4.5-4.7-.8-4.4,1.4-6.5,4.5-5.7,6.6-8.7c3.1-4.5,7-6.6,12.6-6.3,3.2.2,6.5-1.5,9.8-2.4s4.3-2,6.1-1.5a189.4,189.4,0,0,1,19.7,6.5c1.6.6,2.5,2.9,3.7,4.5s3.6,6.6,6.2,8.9c4.9,4.3,4.3,9.1,2.6,13.6S598,84.2,594,84.2Z"/><path class="cls-2" d="M772.8,628.3c-14.2-.3-20.4-5.1-25-18.5-2.3-6.7-4.9-13.4-7.6-20-3.7-8.7.6-25.8,8.2-31.6,4.3-3.3,8.2-2.8,10.9,1.9a28.6,28.6,0,0,1,3.6,9.7c1.6,10.4,9.7,15.3,17.2,20.1,2.4,1.5,7.8-.9,11.3-2.6,1-.5.7-5.2-.2-7.5-2.8-7-5.6-13.8-10.8-19.9s-3.7-15.8-2.2-24a25.4,25.4,0,0,1,1.1-3.8c2.3-6.6,4.3-7.2,10.7-4.4s9.5,6.1,12.8,11.2c1.6,2.5,5.4,4.1,8.5,4.8,5.9,1.3,9.7,4.1,8.7,10-2.2,13.4-3.1,27.5-16.3,36.4-3.9,2.6-6.2,8-8.5,12.4s-4.5,11.1-7.1,16.5C784.4,626.9,781.4,628.5,772.8,628.3Z"/><path class="cls-2" d="M705,114.5c.8-4.2,1.7-8.4,2.5-12.7s1.9-8.8,2.1-13.3c.7-12.8,8.8-20.1,19.2-25.1,8.6-4.1,13.5.1,12.3,9.6a13.5,13.5,0,0,1-.9,3.9c-4.5,9.9-.8,18.9,3.1,27.8,2.1,4.7,7,4.9,11.2,4.7s4.1-4.1,4.5-7.2c.8-7.5,3.2-15,.2-22.6-.5-1.3.2-3.3.6-4.9a40.8,40.8,0,0,1,14.6-20.9c3.4-2.6,6.1-2.4,8.7,1.5,3.8,5.5,6.5,10.9,6.2,17.9-.1,2.5,2.3,5.8,4.5,7.7,5.6,5,6.8,10.3,1.7,15.9A127.9,127.9,0,0,1,778.7,113c-3.2,2.4-8,2.6-12,4.1s-9.8,3.1-14,5.7-10.7,7.9-16,11.9-12.5,4.5-18.9,0S704.9,124.1,705,114.5Z"/><path class="cls-2" d="M282.2,396.2c1-4.9,2-9.7,3-14.6a81.6,81.6,0,0,0,1.6-10.3,30.6,30.6,0,0,1,20.2-26.5c8.1-2.7,12.7,1.2,11.4,9.7a12,12,0,0,1-.8,3.4c-4.9,10-1.1,19.1,2.6,28.3,1.2,3.1,8.1,6.5,11.5,4.9s3.8-4.3,4.2-6.8c1.3-7.3,2.6-14.5.8-22.2s2.8-12.8,6.9-18.1a40.6,40.6,0,0,1,8.9-8.6c1.5-1,5.5-.8,6.4.3,4,5,8.3,10.1,7.4,17.4-.6,4.3,1.4,7.6,5,10.1,5.4,3.8,6.7,9.1,2.3,14.2A153,153,0,0,1,354.4,396c-2.7,2.2-7.3,1.8-10.9,3.1s-9.7,3.2-14,5.9c-5.9,3.7-11.2,8.4-16.9,12.4s-10.5,3.7-15.9.2C289,412.5,282.1,406.9,282.2,396.2Z"/><path class="cls-2" d="M1182.3,396c.9-4.7,1.9-9.4,2.8-14.2a83.9,83.9,0,0,0,1.7-10.3c.7-11.8,8.8-22.8,20-26.7,8.4-2.9,13.1,1.1,11.6,9.9a12.1,12.1,0,0,1-.7,3.4c-5,10-1,19.2,2.8,28.2,2,4.7,6.9,4.9,11.2,4.8s4.1-3.7,4.5-6.7c.9-7.4,2.7-14.5.7-22.2s2.4-12.6,6.4-17.7a62.7,62.7,0,0,1,9.5-9.5c2.6-2.1,5.3-1.6,7.2,1.4,3.6,5.2,7.4,10.3,6.4,17.3-.5,3.9,1.5,6.9,4.8,9.3,5.7,4.2,6.8,9.5,2.1,15a141.5,141.5,0,0,1-18.3,17.6c-2.8,2.3-7.4,2.8-11.3,3.2a27.9,27.9,0,0,0-14.9,6.4c-5.1,4.1-10.3,7.9-15.5,11.7s-11.7,4-17.6,0C1188.3,411.9,1181.9,406.2,1182.3,396Z"/><path class="cls-2" d="M1.7,277.8c2.9,2.5,4.8,4.4,6.9,5.9,4.8,3.4,8.7,2.7,13-1.3a60.3,60.3,0,0,1,10.2-7.7c7.1-4.2,9-7.9,7.4-16-.5-2.4-.9-4.9-1.3-7.4-1-6.5-4.4-10.6-11-11.9a18.4,18.4,0,0,1-6-2.4c-8.9-5.6-10.1-5.7-19.3.3,0-8.8-.1-17.2.2-25.6,0-.9,2.5-2.3,4-2.5a46.5,46.5,0,0,1,24.4,3.3c5.3,2.3,10.8,4.6,15.7,7.6,2.3,1.5,3.7,4.7,5,7.4,2.2,4.5,4,9.3,5.8,14a31.7,31.7,0,0,1,2.1,8.2,18.5,18.5,0,0,0,9.1,15.1,32.3,32.3,0,0,1,6.9,5.7c4.9,5.5,3.7,10.9-2.6,14.7-2.2,1.3-4.8,3-5.8,5.2-4.6,9.7-13.3,11.4-22.2,11-14.5-.7-18.9,1.7-23.3,15.7-1.4,4.5-4.2,6.6-8.9,6.1s-10.4-4.6-10.4-7.9C1.6,303.2,1.7,291,1.7,277.8Z"/><path class="cls-2" d="M3.2,752.8c3.9,9.4,11.7,11.7,20.6,12.7,3.4.4,6.4,3.1,9.7,4.4s5.8,2.7,8.7,2.9c7,.4,11.5,2.6,15.1,9.7s7.2,12.8,8.7,20.2c.1.7.6,1.3.5,1.9-2,8.2,1.1,17-3.1,24.9-2,3.8-2.6,7.4-1.1,11.4a58.1,58.1,0,0,1,1.9,6.2c1.1,4.1.9,8.1-3,10.8s-8.3,4.5-13.4,1.7a11.8,11.8,0,0,0-8.2-.8c-11,3.3-30.3-4.8-35.2-15.2a9.2,9.2,0,0,1-1-3.8c.1-6.3,11.1-15.6,17.3-14.8s13.2-2.6,14.8-9.4a10.7,10.7,0,0,0-.6-6.2c-2.1-5-4.7-9.8-7.1-14.8s-5.8-7.7-11.6-7.8c-4.1-.1-8.2-1.4-12.1-2.4a3.7,3.7,0,0,1-2.3-2.6c-.2-9.4-.1-18.8-.1-28.2Z"/><path class="cls-2" d="M736.2,1l.8,11.8c0,.3.2.7.1,1-1.7,6.3.7,10.6,6.2,14,1.2.7,1.5,4.3.9,6.2-4.7,14.3-20.8,22.8-35.5,19.6-4.7-1-9.7-.5-14.4-1.4a45.4,45.4,0,0,1-11.5-4c-9.8-4.9-19.4-10.1-29-15.2a47.5,47.5,0,0,1-6.8-4.2c-2.9-2.2-3.3-5.2-.6-7.7,7.5-6.6,15.2-12.9,22.9-19.2a5.5,5.5,0,0,1,3.3-.8h63.4C736.6,1,737,1.3,736.2,1Z"/><path class="cls-2" d="M797.5,116.3c7.3,0,17.6,7.5,20.1,14.5,1.4,4,0,6.2-4.3,6.1s-5.6-.8-8.4-1c-4.9-.3-9.3,1.2-12.5,5.1s-1.8,8.4,3.2,9.1,7.4,3,9.5,7c3.8,7,14.3,11.3,21.9,8.9s13.7-3.2,20.8.3c4.9,2.4,12.2-1.4,13.9-6.7.5-1.6-.1-3.9-.8-5.6s-2.6-2.3-3.3-3.7c-4.1-8.7-10-15.1-19.5-18.4-4.7-1.7-4.1-7.8.5-10.2s9.2-3,13.4-.4c6.2,3.8,12.5,7.8,17.7,12.7,2.6,2.5,3.9,7.3,4.2,11.1s.9,10.3,3.3,15.4a51.7,51.7,0,0,1,4.7,16.7c.4,4-1.3,8.3-2.7,12.3s-3.8,3.3-6.3,1.1a37.2,37.2,0,0,1-4-4.5c-4.7-5.8-11.7-6.7-17.6-2.1a20.8,20.8,0,0,0-4,3.8c-6.9,9.4-16.5,7.6-26.2,2.4s-16.6-11.1-26.9-12.4c-2-.3-4.4-2.4-5.6-4.3-2.7-4.5-4.9-9.4-7.2-14.2s-1.6-10.2.7-14.9a23.7,23.7,0,0,0,2-15.5C782.5,120,786.7,116.2,797.5,116.3Z"/><path class="cls-2" d="M593.1,382.9c0,8.5-8.3,18.9-16.6,20.9-4.2,1-6.1-.6-5.6-4.9a67.3,67.3,0,0,1,1.6-6.8c1.1-5.2.4-10-3.1-14.1s-8.6-3.4-10,2.1-3.4,6.5-7.3,8c-7.9,3.1-13.5,13.1-11.8,21.5s1.4,13.7-2.6,20.1c-2.8,4.6,0,12.4,4.9,14.6,1.7.7,4.1.2,6.1-.4s2.3-2.1,3.6-2.6c9.3-3.1,16.4-8.4,20.8-17.6,2-4.2,8.6-2.9,9.6,1.9s1.3,9.6-.8,12.8A89.4,89.4,0,0,1,566,456.1c-2.3,2-6.8,1.8-10.3,2.3-5.2.7-10.4.9-15.6,1.6s-11.7,2.5-17.7,2.7c-3.2.1-6.9-1.3-9.8-3-5.5-3.1-5.3-5.9.1-9.4,3.5-2.3,7.4-3.9,8.3-8.7s-.5-9.4-3.8-13.4c-8.8-10.6-7.8-17.8.4-28.7,5.5-7.4,12.4-14.4,14.4-24.2.4-2.1,3.1-4.2,5.3-5.3,4.3-2.1,9-3.4,13.5-5.1s11.2-.8,16.2,2.3a23.3,23.3,0,0,0,14.2,3.6C590.9,370.5,593.1,373,593.1,382.9Z"/><path class="cls-2" d="M767,734.5c0-11,2.5-13.8,11.9-16a55.1,55.1,0,0,0,11.8-4.7c3.3-1.7,5.6-.6,8,1.7,5,4.9,10,9.9,15.3,14.5a10.1,10.1,0,0,0,6.5,1.9c6.7-.3,10.7,3.1,13,8.8s2.9,12.9-2.2,18.2c-3.6,3.7-7.8,6.7-11.8,9.9a9.9,9.9,0,0,1-4.1,1.8l-27.3,5.2c-2.1.4-4.6,1-6.4.3s-5.4-2.6-6-4.6c-3.1-10.8-5.5-21.8-8.1-32.8A31.9,31.9,0,0,1,767,734.5Z"/><path class="cls-2" d="M171.7,130c-7.5,0-12.3-4.1-15.3-10.3s-2-10.9,2.4-16.4a16.8,16.8,0,0,0,3.3-8.4c.7-6.8.3-13.8,1-20.6.2-1.7,2.3-3.8,4.1-4.8,3.8-2.1,8.2-3.2,12-5.5,7.2-4.4,11-4.9,16.9,1.1s8.2,11.2,12,17,6.3,10.5,9.7,15.6,2.8,7.2-1.2,10.5-7.4,5-11.1,7.6-9.7,6.9-14.6,10.2a17.3,17.3,0,0,1-6.3,2.6C180.2,129.3,175.9,129.6,171.7,130Z"/><path class="cls-2" d="M1070.4,130c-6.4,0-11-4.2-14.1-10.4s-1.8-10.9,2.5-16.4a18,18,0,0,0,3.1-8.9c.7-6.7.4-13.5,1.1-20.1.2-1.7,2.4-3.7,4.2-4.7,3.8-2.1,8.2-3.3,11.9-5.5,7.1-4.3,10.7-4.9,16.5,1s8.3,11.1,12.1,16.9,6.5,10.8,10,16.1,2.7,7.4-1,10.1-10.3,6.7-15.5,10c-1.8,1.2-4.3,1.8-5.5,3.4C1089.6,129.9,1080.3,129.2,1070.4,130Z"/><path class="cls-2" d="M199.1,520.1c-7.2-.1-14.4-1.2-20.4-7.8-3.4-3.8-9-5.5-13.5-8.3a52.9,52.9,0,0,1-7-4.8c-4.5-3.9-4.4-6.7-1.1-11.6s6.6-11.5,10.4-17a149.5,149.5,0,0,1,12.6-16.5c3.7-4.1,8.4-3.5,13.2-.8s10,4.2,14.5,7c1.8,1.1,3.3,4,3.5,6.3.6,7,.3,14.2.8,21.2a9.2,9.2,0,0,0,2.9,5.6c5.5,4.9,5.8,10.7,2.9,16.8s-7.8,10.8-15.6,10.3Z"/><path class="cls-2" d="M1099.4,520.1c-7.4-.1-14.8-1.2-20.9-7.9-3.4-3.8-9-5.5-13.5-8.3a49.5,49.5,0,0,1-6.9-4.9c-4.3-3.8-4.2-6.5-1.1-11.3s6.7-11.5,10.4-17,7.5-11.4,12.2-16.2,8.3-4.4,14.4-.9a101.9,101.9,0,0,0,13.8,6.3c3.4,1.3,3.7,3.9,3.7,6.8.2,7.1.2,14.2.7,21.2a8.4,8.4,0,0,0,2.7,5.1c5.7,5,6,10.9,3,17.2s-8.3,10.8-16.3,10Z"/><path class="cls-2" d="M2.4,1.1c8.7,0,17.5-.3,26.3.2,2.1.1,4.4,2.3,6,4s3.9,5.3,5.9,8,5,4.8,9.7,4,11.5-.5,17.3.1c2.2.2,4.4,2.1,6.2,3.7s5.7,5.9,8.6,8.9,4.1,21.9,1.5,23.2a31.3,31.3,0,0,1-13.5,3.3c-3.7-.1-6.7-.4-9.6,2.3s-6.9,2-10.1,0C44,54.7,39.4,48.9,37.7,41.2S27.6,25,18.9,24.7c-1.4,0-2.8,2-4.4,2.5s-4.8,2-6.5,1.3-6.7-1.2-6.4-6.2.1-13,.2-19.5A7.5,7.5,0,0,1,2.4,1.1Z"/><path class="cls-2" d="M509.6.9h8.5c14.8,0,29.6-.1,44.5.2,4.3.1,8.6,1.6,12.9,2.3a14.3,14.3,0,0,0,4.8-.1c3.6-.7,7.2-2.2,10.8-2.3C604.2.8,617.4.9,630.5,1l4.8.2.6,1.3c-9.4,6.3-18.8,12.6-28.3,18.7-1.2.8-3.3.6-4.9.3-7.8-1.6-14.9.8-22.4,2.6-11.2,2.6-22.8,3.4-34.2,4.9-3.6.5-7.3.5-10.7,1.5-6.5,1.9-11.8.1-16.5-4.2a4.6,4.6,0,0,1-1.5-3.3C518.5,14.6,515.4,7.8,509.6.9Z"/><path class="cls-2" d="M1365.9,746.1c-.6,1.1-1.2,2.4-1.9,3.7s-2.5,2.7-2.7,4.1c-.6,6.6-5.1,8.4-10.5,10.1-2.4.7-4.5,2.7-6.3,4.6s-5.6,3.7-9,2l-25.8-13c-3.4-1.7-4.3-4.3-3.3-7.8,2-6.8,1.6-12.7-4.2-18.1s-2.6-10.3,3.5-12.5l15.4-5.5c.5-.2,1-.5,1.4-.4,6.1,1.8,12.6,2.8,18.1,5.7s11.1,8.4,16.6,12.6S1364.5,740,1365.9,746.1Z"/><path class="cls-2" d="M439.6,771.6a26.3,26.3,0,0,1-4.2-1.2l-25.8-13c-3.4-1.7-4.3-4.3-3.3-7.8,2-6.8,1.6-12.7-4.2-18.1s-2.7-10.3,3.5-12.5l15.4-5.5c.5-.2,1-.5,1.4-.4,6.1,1.8,12.6,2.8,18.1,5.7s10.8,7.7,15.7,12.1a40.5,40.5,0,0,1,7.3,8.6c2.5,3.9,3.2,8-.9,11.7a5.1,5.1,0,0,0-1.7,3c-.5,5.9-4.2,7.9-9.4,9.3-2.5.7-4.7,2.9-7,4.5Z"/><path class="cls-2" d="M706.8,480.7c7.2,0,9.6,1.9,11.3,8.8.9,3.7,2.1,7.3,3.2,11,1.7,5.8.7,10.8-4,14.9a44.3,44.3,0,0,0-3.5,3.5c-4,4.4-3.5,5.3,1.5,8.3s10.2,6.6,10.7,13.4-2.5,12.9-8.8,16.6-9.9,6.3-15.2,8.6c-2.5,1.1-6.5,1.3-8.8,0s-3.2-6-1.8-9.4c2.2-5.4,4.9-10.6,7.1-15.9a38.6,38.6,0,0,0,2.5-8.5c.7-4.3-1.2-6.9-5.6-8a28.1,28.1,0,0,1-7-2.5c-4.7-2.6-7.1-6.7-5.7-12.1a102.2,102.2,0,0,1,5.7-16.9A20.5,20.5,0,0,1,706.8,480.7Z"/><path class="cls-2" d="M341.6,232c3.5,1.2,6.7,2,9.6,3.5s5.4,4.3,4.3,8.9-.4,7.9-.4,11.9c0,6.2-2.5,10.9-8.3,13.6l-4,2c-5.8,3.2-5.7,4-1.5,8.9s7.5,10,5.5,16.7-6.6,10.7-13.3,12.1-12,2.8-18.1,3.4c-2.5.2-6.6-1.1-7.5-3s-.5-6.4,1-8.6c2.8-4.2,6.8-7.7,10.2-11.5a71.3,71.3,0,0,0,4.8-5.7c3.8-5.2,4.7-9.7-2.4-13.9-9-5.3-10.2-12.3-3.8-20.4a86,86,0,0,1,12.8-13.7C333.4,233.8,337.8,233.3,341.6,232Z"/><path class="cls-2" d="M1241.9,232c3.3,1.3,6.8,2.3,10,3.9s4.6,4.3,3.7,8.3-.5,7.3-.4,10.9c.2,7.3-2.7,12.5-9.5,15.4a30.9,30.9,0,0,0-4,2.1c-4.5,2.7-4.4,3.9-.8,7.8s8,10.1,6,17-6.8,10.9-13.7,12.4a159.9,159.9,0,0,1-18.1,3.3c-2.4.2-6.2-1.1-7.1-2.8s-.5-5.8.6-8.3,3.7-4.6,5.7-6.8,6.9-7.3,9.9-11.2c4.5-6.1,3.8-9.3-2.5-13.4-8.9-5.9-10.1-12.4-3.8-20.9,2-2.7,3.9-5.4,6-8C1228.4,235.9,1234.4,233,1241.9,232Z"/><path class="cls-2" d="M171.4,1c6.7,0,12.8-.1,18.9.1a6.1,6.1,0,0,1,3.4,1.7c1.7,1.5,3.3,3.3,4.9,5,7.6,8.1,8.7,13.9,3.4,23.8a9.9,9.9,0,0,1-7.4,4.4c-5.1,0-10.2-1.4-15.1-2.6a29.2,29.2,0,0,0-15.1.4,32.7,32.7,0,0,1-17,0c-9-2.8-17.5-7.2-26-11.4-2-1-3.4-3.9-4.3-6.2-1.7-4.7-2.7-9.6-4.2-14.8a12.9,12.9,0,0,1,2.4-.3c4.2-.1,8.4.6,12.5-.1,10-1.8,17.6,3.3,25.1,8.2,2.2,1.4,3.4,5.1,3.9,8,.9,5.4,3.5,7.3,8.6,5.3,7.2-2.9,9.9-8.9,7.4-16C172.3,4.7,171.9,3.1,171.4,1Z"/><path class="cls-2" d="M1012.5,1h26.2a5.8,5.8,0,0,1,2.8.8c3.1,1.8,6.1,4,9.3,5.6s6.1,4.8,6.3,9.4,3.5,7.6,8.7,5.3c7.1-3.1,9.5-8.8,6.9-16.2-.5-1.4-.8-2.8-1.3-4.9,6.8,0,13.1-.1,19.3.1A5.9,5.9,0,0,1,1094,3c2.7,2.7,5.4,5.4,7.9,8.4,4.5,5.4,4,18-1.3,22.6a10.5,10.5,0,0,1-7.3,2.2c-5.6-.6-11-2.4-16.6-3.3-2.9-.5-6.3-1-8.7,0-8.6,3.7-17,2.8-25.3-.4s-13.6-6.2-20.4-9.4c-3.6-1.7-4.9-4.7-5.5-8.7S1014.1,5.7,1012.5,1Z"/><path class="cls-2" d="M684.1,566c.1,8.8-2.3,14.4-7.8,18.9-2.9,2.4-5.1,5.7-8,8.1s-4.9,3.5-7.1,3.2-3.6-3.5-4.2-5.7c-1.7-5.4-4.4-9.4-9.5-12.2-7.7-4.1-9.1-7.4-7.9-16.3a10.8,10.8,0,0,0,.3-3c-1.5-10.5,5.2-17.4,11-24.6,3.2-3.9,9.3-5.2,13.7-3.4s6.6,5.9,6.4,10.8,1.5,8.1,5.7,10.7S683.9,561.6,684.1,566Z"/><path class="cls-2" d="M1179.8,265.8c9.3.1,14.1,6.3,11.5,14.1-1.6,4.9-1.2,8.7,2.2,12.8,6.9,8.4,2.5,24-7.6,29.1-4.6,2.3-9,5-13.7,6.9-2.2.9-5.5,1.4-7.4.3s-2.3-4.3-2.1-6.5c.5-5.7-.9-10.5-5.1-14.5s-6.2-11-2.7-17.6a21,21,0,0,0,2.1-5c2.3-10.2,11.1-13.8,18.7-18.7C1177,265.9,1179.1,265.9,1179.8,265.8Z"/><path class="cls-2" d="M261.7,321.7a13.1,13.1,0,0,0-4-13.4c-5.7-5.3-6.5-11.2-2.9-18a13.5,13.5,0,0,0,1.5-3.7c2-10.4,10.6-14.7,18.4-19.6,4.2-2.6,10.8-1.6,14,1.5s4,7.8,2.2,12.4-1,7.5,1.9,11.1c7.2,8.8,3.5,24.3-6.8,29.6-4.7,2.4-9.3,5.2-14.2,7.2-2.2.9-5.8,1.4-7.3.2S262.6,324.2,261.7,321.7Z"/><path class="cls-2" d="M1237.6,755.7c-8.5-.1-16.2-7.9-16.9-16.4a27.3,27.3,0,0,0-3.3-10.3c-2.6-4.8-3.1-9.3-.8-14.3a29.3,29.3,0,0,0,2-6.7c1.7-8.2,9.3-11.7,16.6-7.6,9.5,5.4,15.5,18.6,13.9,29.3-.6,3.7-.8,7.8.3,11.3C1252.4,750.6,1251.3,755,1237.6,755.7Z"/><path class="cls-2" d="M337.6,755.8c-8.5-.1-16.1-7.8-16.8-16.4a27.3,27.3,0,0,0-3.3-10.3c-2.6-4.8-3.1-9.3-.7-14.3a28.8,28.8,0,0,0,2-6.7c1.7-8.2,9.3-11.7,16.6-7.5,9.5,5.4,15.5,18.5,13.8,29.4-.5,3.7-.8,7.8.3,11.3C352.5,750.5,351.3,755,337.6,755.8Z"/><path class="cls-2" d="M1254.6,21c4.9.5,8.5,2.1,10.2,6.9a24.8,24.8,0,0,0,4.3,7.7c3.2,3.8,3.2,7.5,1,11.5-4,7.1-10.3,11.7-17.5,15-1.3.6-3.6,0-5-.8-8.7-4.9-17.2-10.1-25.8-15.2-3-1.8-3.7-4.2-1.6-7.1s2.6-3.8,4.4-4.7c9-4.5,18.2-8.6,27.4-12.9A10.5,10.5,0,0,1,1254.6,21Z"/><path class="cls-2" d="M353.6,20.9c5.8.4,9.6,2,11.3,7.2a21.2,21.2,0,0,0,4,7.3c3.6,4.1,3.4,8.1.9,12.3-4,6.7-10.1,11-16.9,14.2-1.3.6-3.7.2-5-.6-8.8-5-17.5-10.2-26.2-15.4-3.1-1.8-3.3-4.3-1.3-7.1a7.8,7.8,0,0,1,.9-1.2C330.5,28.5,342.2,24.3,353.6,20.9Z"/><path class="cls-2" d="M359.3,180.7c.4,7.1-2.8,11.1-9.3,13.6s-13.9,6.3-20.8,9.6c-5.3,2.5-8.1,1.7-9.1-3.9-2.2-12.4,0-24.5,4.9-36,2.2-5.2,6.5-6.3,12.1-5a30.7,30.7,0,0,0,7.8.7c6.3-.2,8.9.9,11.1,7C357.6,171.2,358.2,176,359.3,180.7Z"/><path class="cls-2" d="M1259.3,180.4c-.4,9.1-1.2,10.1-9.5,13.9s-13.8,6.4-20.7,9.7c-5.3,2.5-8,1.6-9-4.2-2.1-12.3.1-24.2,4.8-35.5,2.3-5.5,6.6-6.6,12.4-5.2a21.8,21.8,0,0,0,7.8.6c5.7-.8,9.1,1.9,10.8,6.7S1258.2,175.7,1259.3,180.4Z"/><path class="cls-2" d="M619.2,473.4c1.1,4.8,1.9,9.7,3.4,14.4,3.3,10.3,1.6,16.1-7.2,22.5-3.1,2.3-6.1,4.6-9.2,6.8s-5.6,1.8-6.2-2.4c-1-6.7-2.7-13-7.1-18.3a5.5,5.5,0,0,1-.9-4.2c3.1-11.8,6.8-23.4,18.5-30,5.4-3,9.6-.7,9.8,5.6.1,1.8,0,3.7,0,5.5Z"/><path class="cls-2" d="M2.1,686V614.9c2.9,2.4,5.4,3.6,6.7,5.6,5.2,8.4,9,17.4,6.4,27.4-3,11.6-6.7,23-10.2,34.4A26.7,26.7,0,0,1,3,686.2Z"/><path class="cls-2" d="M799.2,2.8,788.9,11c-11.8,9.4-23.7,4.4-35.6.4-1.4-.5-3.2-1.1-3.8-2.2a12.4,12.4,0,0,1-1.5-6.3c0-.7,2.8-1.7,4.4-1.7C767.7.9,783,1,798.2,1Z"/><path class="cls-2" d="M661.7,441.9c.1,8-2.3,15-8.5,20.5-3.1,2.8-5.9,2.5-8.9,0a13.9,13.9,0,0,1-3.8-16.2,87.5,87.5,0,0,1,6.3-10.7c2.3-3.5,5.6-6.2,10-5s4.3,5.5,4.9,9A14.4,14.4,0,0,1,661.7,441.9Z"/><path class="cls-2" d="M654.7,480.9c0,9.3-7.9,18.2-16.4,18.8-4.6.3-6.2-1.3-4.4-5.4s5.2-9.1,8-13.7a28.7,28.7,0,0,1,3.1-4.5c1.6-1.7,3.4-3.2,5.2-4.8,1.4,2.2,2.8,4.3,4,6.6A9.6,9.6,0,0,1,654.7,480.9Z"/><path class="cls-2" d="M2,76V53.4C8.8,55,14.6,57.1,15.7,65c.5,3.8,0,6.4-4.4,7.3S5.5,74.5,2,76Z"/><path class="cls-2" d="M1206.2,1.2c-4.6,2.1-8.6,4.4-12.9,5.6s-5.7-2-7.3-5.6Z"/><path class="cls-2" d="M305.9,1.4c-4.2,1.9-8,4-12.1,5.4s-5.8-1.8-7.7-5.4Z"/><path class="cls-2" d="M1.9,489.8v-13C7.1,480.3,7.3,485.1,1.9,489.8Z"/><path class="cls-2" d="M409.6,1.2h14.6V2.4H409.7Z"/><path class="cls-2" d="M1324.1,2.5h-14.5V1.3h14.7Z"/></svg>