<?xml version="1.0" encoding="utf-8"?>
<!-- Generator: Adobe Illustrator 21.0.2, SVG Export Plug-In . SVG Version: 6.00 Build 0)  -->
<svg version="1.1" id="Layer_1" xmlns="http://www.w3.org/2000/svg" xmlns:xlink="http://www.w3.org/1999/xlink" x="0px" y="0px"
	 viewBox="0 0 80 133.3" style="enable-background:new 0 0 80 133.3;" xml:space="preserve">
<style type="text/css">
	.st0{fill:#00B3E3;}
	.st1{fill:#FFFFFF;}
	.st2{fill:#EDECEC;}
</style>
<rect class="st0" width="80" height="133.3"/>
<path class="st1" d="M57.7,43.4c0,6.4-3.3,12-8.7,14.8l-1.1,0.5c-0.4,0.1-0.8,0.3-1.3,0.3c-0.8,0-1.5-0.4-1.9-0.9
	c-0.3-0.5-0.4-1.1-0.3-1.7c0.1-0.9,0.9-1.3,1.1-1.5c3.2-1.5,5.2-4.7,5.2-8.1v-9.3c0-3.6-2-6.8-5.1-8.1c0,0-0.9-0.4-1.2-1.5
	c-0.1-0.7,0-1.2,0.3-1.7c0.4-0.7,1.1-0.9,1.9-0.9c0.4,0,0.9,0.1,1.3,0.3l1.2,0.5c5.3,2.8,8.7,8.5,8.7,14.9
	C57.7,40.8,57.7,43.4,57.7,43.4z M34.5,54.8c0.3,0.1,0.9,0.5,1.1,1.5c0.1,0.7,0,1.2-0.3,1.7c-0.4,0.7-1.1,0.9-1.9,0.9
	c-0.4,0-0.8-0.1-1.3-0.3l-1.2-0.5c-5.3-2.8-8.7-8.5-8.7-14.8v-2.6c0-6.4,3.3-12,8.7-14.9l1.2-0.5c0.4-0.1,0.8-0.3,1.3-0.3
	c0.8,0,1.5,0.4,1.9,0.9c0.3,0.5,0.4,1.1,0.3,1.7c-0.3,1.1-1.1,1.5-1.2,1.5c-3.1,1.6-5.1,4.8-5.1,8.3v9.3
	C29.3,50.2,31.3,53.4,34.5,54.8 M40,15.9c-14.4,0-26.1,11.7-26.1,26.1S25.6,68.2,40,68.2s26.1-11.7,26.1-26.1S54.4,15.9,40,15.9"/>
<polygon class="st1" points="14.8,95 14.9,96 11.9,96 11.9,102.8 10.8,102.8 10.8,95 "/>
<path class="st1" d="M18.5,99.6h-0.8v3.2h-1v-7.7h2c1.6,0,2.7,0.8,2.7,2.3C21.3,98.8,20.3,99.6,18.5,99.6 M18.7,95.9h-1v2.8h0.9
	c1.1,0,1.7-0.4,1.7-1.5C20.3,96.4,19.7,95.9,18.7,95.9"/>
<path class="st1" d="M25.7,101.4c-0.5,1.2-1.1,1.5-2,1.5c-0.3,0-0.5-0.1-0.8-0.1l-0.1-0.9c0.3,0.1,0.5,0.1,0.8,0.1
	c0.4,0,0.7-0.3,1.1-0.8l0.4-0.8l-2.8-5.2l1.1-0.1l2.3,4.3l2.1-4.3H29L25.7,101.4z"/>
<polygon class="st1" points="35.3,102.8 35.3,96 31.5,96 31.5,102.8 30.4,102.8 30.4,95 36.4,95 36.4,102.8 "/>
<polygon class="st1" points="43.6,102.8 43.6,96 39.7,96 39.7,102.8 38.8,102.8 38.8,95 44.7,95 44.7,102.8 "/>
<path class="st1" d="M49.5,95h1.1l2.9,7.6l-1.1,0.3l-0.9-2.4h-3.2l-0.9,2.4h-1.1L49.5,95z M48.8,99.5h2.5l-1.2-3.3L48.8,99.5z"/>
<path class="st1" d="M14,116.4c-2.1,0-3.6-1.6-3.6-4c0-2.4,1.5-4,3.6-4s3.6,1.6,3.6,4C17.6,114.8,16.3,116.4,14,116.4 M14,109.4
	c-1.6,0-2.5,1.2-2.5,3.1c0,1.9,0.9,3.1,2.5,3.1s2.5-1.2,2.5-3.1C16.5,110.6,15.6,109.4,14,109.4"/>
<polygon class="st1" points="22.1,109.5 22.1,116.3 21.1,116.3 21.1,109.5 18.5,109.5 18.5,108.6 24.5,108.6 24.7,109.5 "/>
<polygon class="st1" points="31.1,116.4 27.5,112.4 27.5,116.3 26.4,116.3 26.4,108.6 27.5,108.6 27.5,112 30.7,108.6 32,108.6
	28.5,112.2 32.1,116.2 "/>
<path class="st1" d="M35.6,113.2h-0.9v3.2h-1.1v-7.7h2c1.6,0,2.7,0.8,2.7,2.3C38.4,112.4,37.2,113.2,35.6,113.2 M35.7,109.5h-1.1
	v2.8h0.9c1.1,0,1.7-0.4,1.7-1.5C37.3,109.9,36.8,109.5,35.7,109.5"/>
<path class="st1" d="M42,116.3h-1.9v-7.7h1.1v3.1h0.9c1.7,0,2.7,0.8,2.7,2.3C44.9,115.5,43.7,116.3,42,116.3 M42.1,112.6h-0.9v2.8
	H42c1.1,0,1.7-0.4,1.7-1.5C43.7,113,43.2,112.6,42.1,112.6 M45.9,108.6H47v7.7h-1.1V108.6z"/>
<polygon class="st1" points="52.3,109.5 52.3,116.3 51.2,116.3 51.2,109.5 48.8,109.5 48.8,108.6 54.7,108.6 54.8,109.5 "/>
<polygon class="st1" points="56.5,116.3 56.5,108.6 57.6,108.6 57.6,114.7 61.5,108.6 62.7,108.6 62.7,116.3 61.6,116.3 61.6,110.2
	57.6,116.3 "/>
<polygon class="st1" points="64.9,116.3 64.9,108.6 69.1,108.6 69.1,109.5 66,109.5 66,111.8 68.4,111.8 68.5,112.7 66,112.7
	66,115.4 69.2,115.4 69.2,116.3 "/>
<rect x="4.9" y="79.6" class="st2" width="70.1" height="0.9"/>
</svg>
