<?xml version="1.0" encoding="utf-8"?>
<!-- Generator: Adobe Illustrator 19.1.0, SVG Export Plug-In . SVG Version: 6.00 Build 0)  -->
<svg version="1.1" id="Layer_1" xmlns="http://www.w3.org/2000/svg" xmlns:xlink="http://www.w3.org/1999/xlink" x="0px" y="0px"
	 viewBox="0 0 297 78" style="enable-background:new 0 0 297 78;" xml:space="preserve">
<style type="text/css">
	.st0{fill:#333333;}
	.st1{fill:url(#SVGID_1_);}
	.st2{fill:#FFFFFF;}
</style>
<g>
	<g>
		<path class="st0" d="M101.2,52.7V25.3h11.2c2.9,0,5.2,0.9,7,2.5c1.8,1.7,2.7,3.8,2.7,6.5c0,2.7-0.9,4.8-2.7,6.5
			c-1.8,1.7-4.2,2.5-7,2.5h-6v9.3H101.2z M106.4,39.2h5.2c3.1,0,5.2-2,5.2-4.9c0-2.8-2.1-4.9-5.2-4.9h-5.2V39.2z"/>
		<path class="st0" d="M142.2,35.2c2,2,3,4.5,3,7.5s-1,5.6-3,7.5c-2,2-4.6,2.9-7.8,2.9c-3.1,0-5.8-1-7.8-2.9c-2-2-3-4.5-3-7.5
			s1-5.6,3-7.5s4.6-2.9,7.8-2.9C137.6,32.2,140.2,33.2,142.2,35.2z M134.4,49.1c3.2,0,5.5-2.7,5.5-6.4c0-3.8-2.3-6.4-5.5-6.4
			c-3.2,0-5.5,2.7-5.5,6.4C128.9,46.5,131.2,49.1,134.4,49.1z"/>
		<path class="st0" d="M148.7,52.7v-20h5v7.8h1.6l6-7.8h5.5l-7.3,9.6l7.9,10.4h-5.8l-6.2-8.2h-1.8v8.2H148.7z"/>
		<path class="st0" d="M184.7,35.1c1.8,1.9,2.7,4.3,2.7,7.3c0,0.4,0,1-0.1,1.7h-14.6c0.3,3.2,2.9,5.3,6.3,5.3c1.8,0,3.7-0.6,5.8-1.7
			l1.6,3.5c-2.7,1.3-5.3,2-8,2c-3.2,0-5.8-1-7.9-2.9c-2-2-3-4.5-3-7.5s0.9-5.6,2.9-7.5s4.4-2.9,7.4-2.9
			C180.6,32.2,183,33.2,184.7,35.1z M182.4,40.9c-0.2-2.9-2-4.8-4.6-4.8c-2.7,0-4.7,2-5,4.8H182.4z"/>
		<path class="st0" d="M188.7,36.7v-4H206v4h-6.1v16h-5.2v-16H188.7z"/>
		<path class="st0" d="M219.3,24.6l6.4-1.6l0.9,4l-6.5,1.6c-3.8,0.9-6,3.1-6.7,6.6c1.6-1.9,3.8-2.9,6.7-2.9c2.7,0,4.8,0.9,6.6,2.9
			c1.8,1.9,2.7,4.2,2.7,7.1c0,3.3-1,5.9-2.9,8c-1.9,2-4.4,3.1-7.4,3.1c-3.3,0-6-1.1-8-3.5c-2-2.3-3-5.5-3-9.4
			C208.1,31.7,211.9,26.3,219.3,24.6z M214.9,47.2c1.1,1.3,2.4,1.9,3.9,1.9c3.3,0,5.5-2.7,5.5-6.6c0-3.6-2.2-6.1-5.5-6.1
			c-3.3,0-5.5,2.4-5.5,6C213.3,44.3,213.8,45.9,214.9,47.2z"/>
		<path class="st0" d="M240.6,40.3c1.3,0,2.6,0.1,3.9,0.4v-1.1c0-2-1.7-3.5-4.1-3.5c-2,0-4.2,0.5-6.6,1.4l-1.3-3.6
			c2.9-1.1,5.8-1.7,8.5-1.7c2.5,0,4.6,0.7,6.1,2.1c1.6,1.3,2.3,3.1,2.3,5.4v8.1c0,0.9,0.6,1.4,1.4,1.4c0.4,0,0.7,0,1-0.1l0.4,3.8
			c-1.1,0.2-2,0.3-2.8,0.3c-2,0-3.6-1-4.3-2.7c-1.8,1.8-4.1,2.7-6.6,2.7c-2.1,0-3.8-0.6-5.1-1.8c-1.3-1.2-2-2.7-2-4.5
			C231.4,42.7,234.8,40.3,240.6,40.3z M239.9,49.5c2.8,0,4.6-1.9,4.6-4.7v-1.2c-1-0.3-2.1-0.4-3.3-0.4c-3,0-4.8,1.3-4.8,3.3
			C236.4,48.3,237.9,49.5,239.9,49.5z"/>
		<path class="st0" d="M254.7,52.7v-20h5.2v7.9h8.7v-7.9h5.2v20h-5.2v-8.2h-8.7v8.2H254.7z"/>
		<path class="st0" d="M278.5,52.7v-20h5v7.8h1.6l6-7.8h5.5l-7.3,9.6l7.9,10.4h-5.8l-6.2-8.2h-1.8v8.2H278.5z"/>
	</g>
	
		<linearGradient id="SVGID_1_" gradientUnits="userSpaceOnUse" x1="9524.001" y1="1662.522" x2="9468.8467" y2="1717.6763" gradientTransform="matrix(-0.7071 0.7071 -0.7071 -0.7071 7949.0664 -5480.9053)">
		<stop  offset="0" style="stop-color:#F4720D"/>
		<stop  offset="0.3982" style="stop-color:#F57610"/>
		<stop  offset="0.7715" style="stop-color:#F9811A"/>
		<stop  offset="1" style="stop-color:#FD8C23"/>
	</linearGradient>
	<circle class="st1" cx="39" cy="39" r="39"/>
	<path class="st2" d="M56.4,20.5C56.4,20.5,56.4,20.5,56.4,20.5c-0.1,0-0.1,0-0.1,0c-0.1,0-0.3,0-0.4,0.1l-40,16.6
		c-0.5,0.2-0.8,0.7-0.7,1.2c0.1,0.5,0.5,0.9,1,1c5.6,1,10.7,3.6,14.8,7.7s6.7,9.2,7.7,14.8c0.1,0.5,0.5,0.9,1,1c0,0,0.1,0,0.1,0
		c0.5,0,0.9-0.3,1.1-0.7l16.6-40c0.1-0.1,0.1-0.3,0.1-0.5C57.5,21,57,20.5,56.4,20.5z"/>
</g>
</svg>
